<?xml version="1.0" encoding="UTF-8" standalone="no"?>
<svg
   xmlns:dc="http://purl.org/dc/elements/1.1/"
   xmlns:cc="http://creativecommons.org/ns#"
   xmlns:rdf="http://www.w3.org/1999/02/22-rdf-syntax-ns#"
   xmlns:svg="http://www.w3.org/2000/svg"
   xmlns="http://www.w3.org/2000/svg"
   xmlns:sodipodi="http://sodipodi.sourceforge.net/DTD/sodipodi-0.dtd"
   xmlns:inkscape="http://www.inkscape.org/namespaces/inkscape"
   version="1.1"
   id="svg2"
   xml:space="preserve"
   width="3333.3333"
   height="3333.3333"
   viewBox="0 0 3333.3333 3333.3333"
   sodipodi:docname="OrgUVC-L_Tech-26_Single-09.eps"><metadata
     id="metadata8"><rdf:RDF><cc:Work
         rdf:about=""><dc:format>image/svg+xml</dc:format><dc:type
           rdf:resource="http://purl.org/dc/dcmitype/StillImage" /></cc:Work></rdf:RDF></metadata><defs
     id="defs6"><clipPath
       clipPathUnits="userSpaceOnUse"
       id="clipPath62"><path
         d="m 19174.7,17837.3 v 351.2 c 0,29.8 18.9,56.5 47.2,65.6 43.6,14 110.6,27.1 171.5,4.2 35.8,-13.4 59.8,-47.3 62.8,-85.4 l 26.2,-328 z"
         id="path60" /></clipPath><linearGradient
       x1="0"
       y1="0"
       x2="1"
       y2="0"
       gradientUnits="userSpaceOnUse"
       gradientTransform="matrix(-248.27,-1698.7,1698.7,-248.27,19400.5,18511.4)"
       spreadMethod="pad"
       id="linearGradient68"><stop
         style="stop-opacity:1;stop-color:#979aa0"
         offset="0"
         id="stop64" /><stop
         style="stop-opacity:1;stop-color:#888b8f"
         offset="1"
         id="stop66" /></linearGradient><clipPath
       clipPathUnits="userSpaceOnUse"
       id="clipPath82"><path
         d="m 20324.3,17533.8 214.3,256.8 c 20.9,25 54.8,34.9 85.8,24.7 34.3,-11.2 79.9,-34.5 124,-82.4 20.5,-22.4 24.6,-55.5 10.6,-82.5 l -155.9,-302.2 z"
         id="path80" /></clipPath><linearGradient
       x1="0"
       y1="0"
       x2="1"
       y2="0"
       gradientUnits="userSpaceOnUse"
       gradientTransform="matrix(-248.273,-1698.72,1698.72,-248.273,20651.3,18328.6)"
       spreadMethod="pad"
       id="linearGradient88"><stop
         style="stop-opacity:1;stop-color:#979aa0"
         offset="0"
         id="stop84" /><stop
         style="stop-opacity:1;stop-color:#888b8f"
         offset="1"
         id="stop86" /></linearGradient><clipPath
       clipPathUnits="userSpaceOnUse"
       id="clipPath102"><path
         d="m 14747.1,17388.6 c 0,0 67.8,140.9 9,215.3 -58.8,74.4 -270.8,304.7 -270.8,304.7 l -24.6,159.1 -87.1,-259.2 186.9,-391 c 0,0 109.5,-118.4 186.6,-28.9 z"
         id="path100" /></clipPath><linearGradient
       x1="0"
       y1="0"
       x2="1"
       y2="0"
       gradientUnits="userSpaceOnUse"
       gradientTransform="matrix(-406.533,0,0,-406.533,14780.1,17711.4)"
       spreadMethod="pad"
       id="linearGradient108"><stop
         style="stop-opacity:1;stop-color:#979aa0"
         offset="0"
         id="stop104" /><stop
         style="stop-opacity:1;stop-color:#888b8f"
         offset="1"
         id="stop106" /></linearGradient><clipPath
       clipPathUnits="userSpaceOnUse"
       id="clipPath118"><path
         d="m 14272.3,16732.9 c 68.5,240.6 162.7,469.6 288.2,684.6 l 186.6,-28.9 -92.1,-646.9 c -70.4,-21.3 -262.5,-69.8 -382.7,-8.8 z"
         id="path116" /></clipPath><linearGradient
       x1="0"
       y1="0"
       x2="1"
       y2="0"
       gradientUnits="userSpaceOnUse"
       gradientTransform="matrix(-474.77,0,0,-474.77,14747.1,17060.3)"
       spreadMethod="pad"
       id="linearGradient124"><stop
         style="stop-opacity:1;stop-color:#979aa0"
         offset="0"
         id="stop120" /><stop
         style="stop-opacity:1;stop-color:#888b8f"
         offset="1"
         id="stop122" /></linearGradient><clipPath
       clipPathUnits="userSpaceOnUse"
       id="clipPath136"><path
         d="m 15094.6,18114.4 412.7,-401 c 27.6,-26.7 30.2,-70.4 5.5,-99.8 -127.3,-151.7 -236.6,-231.2 -327.4,-237.2 -38.6,-2.5 -75.1,17.8 -95.8,50.4 l -219.4,346 z"
         id="path134" /></clipPath><linearGradient
       x1="0"
       y1="0"
       x2="1"
       y2="0"
       gradientUnits="userSpaceOnUse"
       gradientTransform="matrix(-659.524,0,0,-659.524,15529.8,17745.3)"
       spreadMethod="pad"
       id="linearGradient142"><stop
         style="stop-opacity:1;stop-color:#979aa0"
         offset="0"
         id="stop138" /><stop
         style="stop-opacity:1;stop-color:#888b8f"
         offset="1"
         id="stop140" /></linearGradient><clipPath
       clipPathUnits="userSpaceOnUse"
       id="clipPath152"><path
         d="m 14261.4,16138.5 -355.1,138.2 -412.8,-328.4 739.2,-2.7 z"
         id="path150" /></clipPath><linearGradient
       x1="0"
       y1="0"
       x2="1"
       y2="0"
       gradientUnits="userSpaceOnUse"
       gradientTransform="matrix(1768.94,-1470.03,1470.03,1768.94,13414.2,16428.4)"
       spreadMethod="pad"
       id="linearGradient158"><stop
         style="stop-opacity:1;stop-color:#979aa0"
         offset="0"
         id="stop154" /><stop
         style="stop-opacity:1;stop-color:#888b8f"
         offset="1"
         id="stop156" /></linearGradient><clipPath
       clipPathUnits="userSpaceOnUse"
       id="clipPath168"><path
         d="m 14402.4,18207.1 c 0,0 56.3,-396.1 208.5,-517.9 152.1,-121.8 448.6,-30.1 548.7,268.5 l -199.5,510.6 z"
         id="path166" /></clipPath><linearGradient
       x1="0"
       y1="0"
       x2="1"
       y2="0"
       gradientUnits="userSpaceOnUse"
       gradientTransform="matrix(-224.938,809.777,809.777,224.938,14536.7,18939.8)"
       spreadMethod="pad"
       id="linearGradient174"><stop
         style="stop-opacity:1;stop-color:#979aa0"
         offset="0"
         id="stop170" /><stop
         style="stop-opacity:1;stop-color:#888b8f"
         offset="1"
         id="stop172" /></linearGradient><clipPath
       clipPathUnits="userSpaceOnUse"
       id="clipPath186"><path
         d="m 14980.8,18096.7 c 0,0 52,211.9 131.1,143.1 79,-68.8 -20.6,-220.3 -111.2,-249.1 z"
         id="path184" /></clipPath><linearGradient
       x1="0"
       y1="0"
       x2="1"
       y2="0"
       gradientUnits="userSpaceOnUse"
       gradientTransform="matrix(-224.937,809.775,809.775,224.937,14813,19016.6)"
       spreadMethod="pad"
       id="linearGradient192"><stop
         style="stop-opacity:1;stop-color:#979aa0"
         offset="0"
         id="stop188" /><stop
         style="stop-opacity:1;stop-color:#888b8f"
         offset="1"
         id="stop190" /></linearGradient><clipPath
       clipPathUnits="userSpaceOnUse"
       id="clipPath208"><path
         d="m 14160.9,15948.3 0.8,190.2 c 0,0 533.1,-11.8 948.1,280.6 67.4,-79.1 158.6,-219.3 185.2,-420.5 -276.8,-63.2 -642.6,-82.9 -1134.1,-50.3 z"
         id="path206" /></clipPath><linearGradient
       x1="0"
       y1="0"
       x2="1"
       y2="0"
       gradientUnits="userSpaceOnUse"
       gradientTransform="matrix(1768.94,-1470.03,1470.03,1768.94,13792.8,16883.9)"
       spreadMethod="pad"
       id="linearGradient214"><stop
         style="stop-opacity:1;stop-color:#979aa0"
         offset="0"
         id="stop210" /><stop
         style="stop-opacity:1;stop-color:#888b8f"
         offset="1"
         id="stop212" /></linearGradient><clipPath
       clipPathUnits="userSpaceOnUse"
       id="clipPath254"><path
         d="M 7196.6,6857.3 6691.05,6730.9 6817.43,5783 c 0,0 -189.58,-189.6 -252.77,-442.4 -63.2,-252.8 -121.46,-1314.1 -121.46,-1314.1 l -119.96,-72.6 -14.59,-60.5 349,-469.2 -57.87,373.4 c -9.19,59.3 6.72,179.6 1.71,182.1 189.58,505.5 595.11,1929.7 595.11,1929.7 z"
         id="path252" /></clipPath><linearGradient
       x1="0"
       y1="0"
       x2="1"
       y2="0"
       gradientUnits="userSpaceOnUse"
       gradientTransform="matrix(1427.27,3674.3,3674.3,-1427.27,6064.56,3507.7)"
       spreadMethod="pad"
       id="linearGradient260"><stop
         style="stop-opacity:1;stop-color:#74767b"
         offset="0"
         id="stop256" /><stop
         style="stop-opacity:1;stop-color:#5c5e61"
         offset="1"
         id="stop258" /></linearGradient><clipPath
       clipPathUnits="userSpaceOnUse"
       id="clipPath270"><path
         d="m 7344.32,3886.9 c -5.47,0.1 -10.85,-0.3 -16.36,0 24.43,304.8 136.08,1646.1 247.8,2148.8 C 7702.14,6604.5 7386.18,7742 7386.18,7742 L 6817.43,7173.2 7133.4,6098.9 c -216.53,-324.8 35.32,-2226.8 29.9,-2226 l 0.34,-4.2 -82.44,-113.4 10.03,-61.5 503.65,-297.2 -198.18,321.8 c -31.45,51.1 -48.83,109 -52.38,168.5 z"
         id="path268" /></clipPath><linearGradient
       x1="0"
       y1="0"
       x2="1"
       y2="0"
       gradientUnits="userSpaceOnUse"
       gradientTransform="matrix(2001.94,1124.69,1124.69,-2001.94,8389.38,6074.3)"
       spreadMethod="pad"
       id="linearGradient276"><stop
         style="stop-opacity:1;stop-color:#74767b"
         offset="0"
         id="stop272" /><stop
         style="stop-opacity:1;stop-color:#5c5e61"
         offset="1"
         id="stop274" /></linearGradient><clipPath
       clipPathUnits="userSpaceOnUse"
       id="clipPath286"><path
         d="m 6704.6,10264.4 c 0,0 -1107.35,-1248.1 0,-1888 l 112.83,81.7 c 0,0 -549.76,526.5 0,1170.9 z"
         id="path284" /></clipPath><linearGradient
       x1="0"
       y1="0"
       x2="1"
       y2="0"
       gradientUnits="userSpaceOnUse"
       gradientTransform="matrix(604.985,0,0,-604.985,6212.44,9320.4)"
       spreadMethod="pad"
       id="linearGradient292"><stop
         style="stop-opacity:1;stop-color:#74767b"
         offset="0"
         id="stop288" /><stop
         style="stop-opacity:1;stop-color:#5c5e61"
         offset="1"
         id="stop290" /></linearGradient><clipPath
       clipPathUnits="userSpaceOnUse"
       id="clipPath308"><path
         d="m 7257.6,10796.2 45.23,-531.8 h -429.68 l 106.84,811.7 z"
         id="path306" /></clipPath><linearGradient
       x1="0"
       y1="0"
       x2="1"
       y2="0"
       gradientUnits="userSpaceOnUse"
       gradientTransform="matrix(303.664,1675.78,1675.78,-303.664,6966.1,9702.8)"
       spreadMethod="pad"
       id="linearGradient314"><stop
         style="stop-opacity:1;stop-color:#74767b"
         offset="0"
         id="stop310" /><stop
         style="stop-opacity:1;stop-color:#5c5e61"
         offset="1"
         id="stop312" /></linearGradient><clipPath
       clipPathUnits="userSpaceOnUse"
       id="clipPath326"><path
         d="m 7701.91,10181 c 63.29,-166.7 120.45,-341.5 181.86,-505.3 31.23,-81.9 62.9,-162.3 96.79,-236 17.14,-36.8 35.96,-70.5 53.24,-101.1 17.3,-30.3 36.78,-55.6 46.93,-67.2 1.99,-1.7 -4.68,-3 -6.91,-3.1 -1.34,-0.2 42.79,-7.2 56.33,-9.5 l 52.89,0.3 c 75.81,3.9 161.68,17.3 247.81,34 173.73,32.4 354.35,77.9 539.8,112.3 l 1.43,0.3 c 35.48,6.5 69.59,-16.9 76.17,-52.4 4.34,-23.4 -4.46,-46.3 -21.07,-61 -74.78,-65.8 -154.05,-119.9 -236.27,-172.5 -41.38,-25.3 -83.49,-50.1 -126.3,-73.9 -43.64,-22.3 -87.41,-44.7 -132.87,-65.4 -91.53,-39.9 -186.08,-76.6 -295,-100.2 -28.62,-4.8 -56.87,-9.9 -86.32,-13.8 -33.04,-1.1 -63.04,-4.1 -99.12,-2 -19.16,1.9 -38.41,4.3 -57.61,7.1 -10.24,1.8 -17.76,2 -30.16,5.4 -13.16,3.9 -26.29,8.3 -39.24,13.2 -27.05,9.7 -44.53,21.5 -66.5,33.7 -18.24,12 -34.88,24.6 -51.01,37.5 -59.55,50.7 -96.53,101 -129.12,149.4 -32.49,48.3 -58.26,96.6 -81.38,144.1 -46.39,94.7 -82.61,188.5 -111.99,283 -59.56,189.4 -99.91,375.5 -116.95,573.2 -8.15,94.6 62,178 156.68,186.2 78.37,6.7 148.99,-40.2 175.62,-110.2 z"
         id="path324" /></clipPath><linearGradient
       x1="0"
       y1="0"
       x2="1"
       y2="0"
       gradientUnits="userSpaceOnUse"
       gradientTransform="matrix(-2811.71,11.2479,11.2479,2811.71,9726.03,9573.2)"
       spreadMethod="pad"
       id="linearGradient332"><stop
         style="stop-opacity:1;stop-color:#74767b"
         offset="0"
         id="stop328" /><stop
         style="stop-opacity:1;stop-color:#5c5e61"
         offset="1"
         id="stop330" /></linearGradient><clipPath
       clipPathUnits="userSpaceOnUse"
       id="clipPath342"><path
         d="m 8912.28,9320.4 76.67,182 403.55,100.6 c 0,0 32.29,-70 -137.2,-100.6 0,0 60.53,-66.9 28.25,-145.6 -32.29,-78.7 -375.31,-157.5 -371.27,-36.4 z"
         id="path340" /></clipPath><linearGradient
       x1="0"
       y1="0"
       x2="1"
       y2="0"
       gradientUnits="userSpaceOnUse"
       gradientTransform="matrix(-2811.71,11.248,11.248,2811.71,9725.45,9428.4)"
       spreadMethod="pad"
       id="linearGradient348"><stop
         style="stop-opacity:1;stop-color:#74767b"
         offset="0"
         id="stop344" /><stop
         style="stop-opacity:1;stop-color:#5c5e61"
         offset="1"
         id="stop346" /></linearGradient><clipPath
       clipPathUnits="userSpaceOnUse"
       id="clipPath358"><path
         d="m 7439.53,11410.4 c 15.34,-9.1 136.23,-435.4 34.93,-614.2 -101.3,-178.8 -410.64,21.5 -494.47,279.9 -83.83,258.5 50.85,575.3 459.54,334.3 z"
         id="path356" /></clipPath><linearGradient
       x1="0"
       y1="0"
       x2="1"
       y2="0"
       gradientUnits="userSpaceOnUse"
       gradientTransform="matrix(-641.069,1012.22,1012.22,641.069,6662.03,12093.3)"
       spreadMethod="pad"
       id="linearGradient364"><stop
         style="stop-opacity:1;stop-color:#74767b"
         offset="0"
         id="stop360" /><stop
         style="stop-opacity:1;stop-color:#5c5e61"
         offset="1"
         id="stop362" /></linearGradient></defs><sodipodi:namedview
     pagecolor="#ffffff"
     bordercolor="#666666"
     borderopacity="1"
     objecttolerance="10"
     gridtolerance="10"
     guidetolerance="10"
     inkscape:pageopacity="0"
     inkscape:pageshadow="2"
     inkscape:window-width="640"
     inkscape:window-height="480"
     id="namedview4" /><g
     id="g10"
     inkscape:groupmode="layer"
     inkscape:label="ink_ext_XXXXXX"
     transform="matrix(1.3333333,0,0,-1.3333333,0,3333.3333)"><g
       id="g12"
       transform="scale(0.1)"><path
         d="M 0,0 H 25000 V 25000 H 0 Z"
         style="fill:#ffffff;fill-opacity:1;fill-rule:nonzero;stroke:none"
         id="path14" /><path
         d="m 19515.5,5916.9 c -374.6,-391.8 -729.1,-644.4 -1009.2,-844 C 15214.1,2726.8 11318.6,3410.6 10490.6,3577.7 9268.07,3824.3 6904.87,4301 5196.32,6296.6 2611.43,9315.7 3013.94,14072.3 5018.96,17212.2 c 366.74,574.3 2304.02,3762 6241.54,4273.2 2382.9,309.4 5160.7,-314.6 7172.2,-1988.4 4222.5,-3513.6 3921.9,-10611.6 1082.8,-13580.1"
         style="fill:#efeff4;fill-opacity:1;fill-rule:nonzero;stroke:none"
         id="path16" /><path
         d="m 5102.15,21521.6 c -29.44,90.9 76.5,165.6 153.06,108.5 777.43,-579.8 2689.76,-2363.4 2661.56,-5863.3 -35.39,-4391.2 1046.49,-5869.1 2279.13,-6705.5 0,0 -1593.85,278.1 -2746.52,1771.4 -2830.03,3666.6 -1823.83,9073.5 -2347.23,10688.9"
         style="fill:#f7e057;fill-opacity:1;fill-rule:nonzero;stroke:none"
         id="path18" /><path
         d="m 6839.53,16210.2 -165.05,4.3 c -51.2,383 -113.67,764.6 -181.77,1145.2 -88.53,484.2 -192.23,965.8 -310.47,1444 -115.75,479 -249.05,953.7 -391.74,1425.9 -3.91,13 3.06,27 16,31.5 2.81,1 5.67,1.5 8.49,1.5 10.55,0 20.42,-6.6 24.12,-17.1 163.94,-466.4 309.9,-939.1 443.27,-1415.6 131.08,-477.1 247.12,-958.5 348.41,-1443.3 25.1,-121.2 49.21,-242.7 72.66,-364.3 22.27,-121.8 44.77,-243.6 64.91,-365.8 25.34,-148.4 49.07,-297.2 71.17,-446.3"
         style="fill:#fbef95;fill-opacity:1;fill-rule:nonzero;stroke:none"
         id="path20" /><path
         d="m 6831.49,7183 c -51.59,-168.2 -258.24,-229.1 -394.27,-117.5 -750.6,616 -2715.28,2549.6 -2699.21,5901.5 13.58,2830.6 -248.05,4366.8 -415.13,5055.9 -35.33,145.8 135.9,251.9 250.87,155.6 C 4842.19,17116.5 8701,13279.4 6831.49,7183"
         style="fill:#f3d33f;fill-opacity:1;fill-rule:nonzero;stroke:none"
         id="path22" /><path
         d="m 4322.8,6221.2 c 0,-162.3 132.95,-295.1 295.43,-295.1 H 20593.6 c 162.5,0 295.5,132.8 295.5,295.1 l 132.9,9180.7 c 0,162.3 -191.2,479.2 -541.7,455.4 l -15612.99,404 c -203.87,5.3 -400.99,-73.2 -545.35,-217.1 -144.38,-143.9 -223.36,-340.7 -218.54,-544.3 L 4322.8,6221.2"
         style="fill:#333435;fill-opacity:1;fill-rule:nonzero;stroke:none"
         id="path24" /><path
         d="m 4614.47,6504.4 c 0,-153.7 125.77,-279.5 279.49,-279.5 H 20208.4 c 153.7,0 279.5,125.8 279.5,279.5 l 125.4,8334.3 c -14.7,501.5 -454.5,681.7 -721,671.1 l -14963.58,401.5 c -143.23,3.8 -281.71,-51.4 -383.15,-152.6 -101.45,-101.2 -157.24,-239.6 -153.64,-382.9 l 222.54,-8871.4"
         style="fill:#a8abb2;fill-opacity:1;fill-rule:nonzero;stroke:none"
         id="path26" /><path
         d="m 20322.4,11609.1 h -0.6 c -22.6,0.2 -40.7,14.6 -40.4,32.1 l 10,521.5 c 0.3,17.3 18.6,31.1 40.9,31.1 h 0.6 c 22.6,-0.2 40.7,-14.6 40.3,-32 l -9.9,-521.6 c -0.3,-17.3 -18.6,-31.1 -40.9,-31.1"
         style="fill:#c6c9d3;fill-opacity:1;fill-rule:nonzero;stroke:none"
         id="path28" /><path
         d="m 20346.7,12887.1 h -0.6 c -22.6,0.3 -40.7,14.7 -40.3,32.1 l 38,1997.6 c -0.8,118.6 -47.4,213.3 -138.8,280.9 -170.5,126.1 -441.2,119.6 -452.6,119.2 l -4782.7,99 c -22.6,0.4 -40.5,15 -39.9,32.4 0.6,17.4 18,32.3 42.1,30.7 l 4779.8,-98.9 c 29.8,1.3 318,5.2 510,-136.8 108,-79.8 163.2,-189.8 164,-326.9 l -38,-1998.1 c -0.4,-17.3 -18.6,-31.2 -41,-31.2"
         style="fill:#c6c9d3;fill-opacity:1;fill-rule:nonzero;stroke:none"
         id="path30" /><path
         d="m 3531.5,5164 h 17963.9 c 68.5,0 124.6,56 124.6,124.5 v 557.6 c 0,68.5 -56.1,124.5 -124.6,124.5 H 3531.5 c -68.48,0 -124.52,-56 -124.52,-124.5 v -557.6 c 0,-68.5 56.04,-124.5 124.52,-124.5"
         style="fill:#48494b;fill-opacity:1;fill-rule:nonzero;stroke:none"
         id="path32" /><path
         d="m 8013.66,8276.1 c 68.11,2694.4 2124.54,4856.2 4651.54,4856.2 2526.9,0 4583.3,-2161.8 4651.4,-4856.2 h 1480.2 c 231.8,0 415.9,210.5 400,458.6 -234.8,3652 -3069.4,6536.3 -6531.6,6536.3 -3451.15,0 -6278.51,-2865.7 -6529.29,-6500.9 -18.38,-266.5 177.05,-494 426.04,-494 h 1451.71"
         style="fill:#f3d33f;fill-opacity:1;fill-rule:nonzero;stroke:none"
         id="path34" /><path
         d="m 12665.2,12898.5 c -85.2,0 -154.2,69 -154.2,154.2 v 2400.5 c 0,85.1 69,154.1 154.2,154.1 85.1,0 154.1,-69 154.1,-154.1 v -2400.5 c 0,-85.2 -69,-154.2 -154.1,-154.2"
         style="fill:#ffffff;fill-opacity:1;fill-rule:nonzero;stroke:none"
         id="path36" /><path
         d="m 15137.9,12182.1 c -26.2,0 -52.8,6.7 -77.1,20.7 -73.7,42.7 -98.9,137 -56.2,210.7 l 1158.6,2002.2 c 42.6,73.6 136.9,98.9 210.6,56.2 73.7,-42.7 98.9,-137 56.3,-210.7 l -1158.6,-2002.1 c -28.6,-49.4 -80.4,-77 -133.6,-77"
         style="fill:#ffffff;fill-opacity:1;fill-rule:nonzero;stroke:none"
         id="path38" /><path
         d="m 16725.7,10298.6 c -55.7,0 -109.5,30.3 -136.9,83.2 -39.3,75.6 -9.8,168.7 65.8,207.9 l 1931.7,1002.4 c 75.6,39.2 168.7,9.7 207.9,-65.9 39.2,-75.5 9.7,-168.6 -65.8,-207.8 L 16796.6,10316 c -22.7,-11.8 -47,-17.4 -70.9,-17.4"
         style="fill:#ffffff;fill-opacity:1;fill-rule:nonzero;stroke:none"
         id="path40" /><path
         d="m 10269.1,12158.3 c -46.2,0 -91.8,20.7 -122.2,60.1 l -1401.64,1818.4 c -51.99,67.5 -39.45,164.3 27.98,216.3 67.47,51.9 164.26,39.4 216.23,-28 l 1401.63,-1818.5 c 52,-67.4 39.4,-164.2 -28,-216.2 -28,-21.6 -61.1,-32.1 -94,-32.1"
         style="fill:#ffffff;fill-opacity:1;fill-rule:nonzero;stroke:none"
         id="path42" /><path
         d="m 8712.91,10328 c -20.37,0 -41.06,4.1 -60.96,12.6 l -2129.62,917.8 c -78.18,33.7 -114.27,124.4 -80.57,202.6 33.73,78.2 124.45,114.2 202.62,80.6 l 2129.61,-917.8 c 78.19,-33.7 114.28,-124.4 80.58,-202.6 -25.15,-58.3 -81.98,-93.2 -141.66,-93.2"
         style="fill:#ffffff;fill-opacity:1;fill-rule:nonzero;stroke:none"
         id="path44" /><path
         d="m 12228,9096.3 -481.9,6360.3 c -2.2,29.1 34.2,34.5 40.2,6 L 13076,9330.7 12228,9096.3"
         style="fill:#48494b;fill-opacity:1;fill-rule:nonzero;stroke:none"
         id="path46" /><path
         d="m 13425.8,8918.8 c 0,-371.9 -301.5,-673.5 -673.5,-673.5 -371.9,0 -673.4,301.6 -673.4,673.5 0,372 301.5,673.5 673.4,673.5 372,0 673.5,-301.5 673.5,-673.5"
         style="fill:#48494b;fill-opacity:1;fill-rule:nonzero;stroke:none"
         id="path48" /><path
         d="m 12730.9,9388.8 c -270.9,0 -491.2,-220.3 -491.2,-491.2 0,-270.8 220.3,-491.1 491.2,-491.1 270.8,0 491.1,220.3 491.1,491.1 0,270.9 -220.3,491.2 -491.1,491.2 z m 0,-1004.3 c -283,0 -513.2,230.2 -513.2,513.1 0,283 230.2,513.2 513.2,513.2 282.9,0 513.2,-230.2 513.2,-513.2 0,-282.9 -230.3,-513.1 -513.2,-513.1"
         style="fill:#efeff4;fill-opacity:1;fill-rule:nonzero;stroke:none"
         id="path50" /><path
         d="m 19152.8,18449.8 c -0.3,8.7 -0.6,16.8 -0.8,23.7 -0.6,19.7 7.4,38.6 22,51.7 85.9,77.1 407.4,341.5 861.7,423.9 24.5,4.4 45.8,-6.7 57.7,-24.1 -37.9,-4.6 -88.6,-14.3 -157,-32.3 -224.6,-58.9 -551.2,-215.9 -783.6,-442.9"
         style="fill:#48494b;fill-opacity:1;fill-rule:nonzero;stroke:none"
         id="path52" /><path
         d="m 19936.4,18892.7 c 68.4,18 119.1,27.7 157,32.3 12,-17.6 14.5,-41.7 1.5,-63.1 -7.4,-12 -16.5,-25 -27.6,-38.9 -71.1,-89 -645.8,-678.7 -645.8,-678.7 0,0 -182.5,-22.2 -238.2,10.1 -18.1,10.5 -27.1,199.9 -30.5,295.4 232.4,227 559,384 783.6,442.9"
         style="fill:#333435;fill-opacity:1;fill-rule:nonzero;stroke:none"
         id="path54" /><g
         id="g56"><g
           id="g58"
           clip-path="url(#clipPath62)"><path
             d="m 19174.7,17837.3 v 351.2 c 0,29.8 18.9,56.5 47.2,65.6 43.6,14 110.6,27.1 171.5,4.2 35.8,-13.4 59.8,-47.3 62.8,-85.4 l 26.2,-328 -307.7,-7.6"
             style="fill:url(#linearGradient68);fill-opacity:1;fill-rule:nonzero;stroke:none"
             id="path70" /></g></g><path
         d="m 20567.5,18148.3 c 4.2,13.8 12.3,25.4 22.7,34 73.7,-14.5 227.3,-55.1 541.8,-166.2 364.6,-128.7 471.4,-241.2 502.1,-301.3 -156.2,-45.7 -511.3,-115.7 -1020.7,-16.1 l -100.6,47.2 c 0,0 7,245.4 54.7,402.4"
         style="fill:#333435;fill-opacity:1;fill-rule:nonzero;stroke:none"
         id="path72" /><path
         d="m 21132,18016.1 c -314.5,111.1 -468.1,151.7 -541.8,166.2 16.2,13.5 38.1,19.8 60.2,15.1 181.1,-37.6 728.3,-166.4 1014.2,-398.3 28.6,-23.1 20.2,-68.8 -14.9,-79.6 -4.9,-1.5 -10.2,-3.1 -15.6,-4.7 -30.7,60.1 -137.5,172.6 -502.1,301.3"
         style="fill:#48494b;fill-opacity:1;fill-rule:nonzero;stroke:none"
         id="path74" /><g
         id="g76"><g
           id="g78"
           clip-path="url(#clipPath82)"><path
             d="m 20324.3,17533.8 214.3,256.8 c 20.9,25 54.8,34.9 85.8,24.7 34.3,-11.2 79.9,-34.5 124,-82.4 20.5,-22.4 24.6,-55.5 10.6,-82.5 l -155.9,-302.2 -278.8,185.6"
             style="fill:url(#linearGradient88);fill-opacity:1;fill-rule:nonzero;stroke:none"
             id="path90" /></g></g><path
         d="m 19529.4,17959.6 c 0,0 -261.6,50.2 -406.7,0 0,0 -191.3,-1147.9 -158.4,-1517 l 565.1,-114.9 c 0,0 16,1293.4 0,1631.9"
         style="fill:#48494b;fill-opacity:1;fill-rule:nonzero;stroke:none"
         id="path92" /><path
         d="m 17210.3,15948.3 c 0,0 1847.8,-103.7 2597.7,-52 73.5,5.1 138.7,48.6 171.6,114.4 160.7,321.8 642.8,1287.4 685,1379.6 0,0 -195.8,163.6 -340.3,186.1 0,0 -684.4,-761.3 -713,-1149.8 0,0 -1584.9,455.9 -1741.4,451.5 -156.6,-4.3 -636.6,-218.5 -636.6,-218.5 l -23,-711.3"
         style="fill:#5c5e61;fill-opacity:1;fill-rule:nonzero;stroke:none"
         id="path94" /><g
         id="g96"><g
           id="g98"
           clip-path="url(#clipPath102)"><path
             d="m 14747.1,17388.6 c 0,0 67.8,140.9 9,215.3 -58.8,74.4 -270.8,304.7 -270.8,304.7 l -24.6,159.1 -87.1,-259.2 186.9,-391 c 0,0 109.5,-118.4 186.6,-28.9"
             style="fill:url(#linearGradient108);fill-opacity:1;fill-rule:nonzero;stroke:none"
             id="path110" /></g></g><g
         id="g112"><g
           id="g114"
           clip-path="url(#clipPath118)"><path
             d="m 14272.3,16732.9 c 68.5,240.6 162.7,469.6 288.2,684.6 l 186.6,-28.9 -92.1,-646.9 c -70.4,-21.3 -262.5,-69.8 -382.7,-8.8"
             style="fill:url(#linearGradient124);fill-opacity:1;fill-rule:nonzero;stroke:none"
             id="path126" /></g></g><path
         d="m 14151.5,16103 c 23.9,217.4 63.3,427.7 120.8,629.9 120.2,-61 312.3,-12.5 382.7,8.8 l -26.4,-185.7 70.7,250.1 c 86,304.3 269,572.1 521.2,762.9 l 175.6,132.9 c 172.5,130.6 448.4,85.5 624.5,-40.4 390.9,-279.3 971.1,-747.7 1169.2,-908.8 42.6,-34.7 100.9,-42.4 151.1,-20.2 l 33,14.7 c 31.3,13.8 65.8,-11.5 62,-45.4 l -84.1,-769 -1342.8,15.5 c -161,0 -627.4,16.6 -701.6,159.5 l -124.2,304.8 c -290.9,-247.5 -664.2,-417.5 -864.1,-467 -92.2,-22.9 -178.6,57.6 -167.6,157.4"
         style="fill:#f3d33f;fill-opacity:1;fill-rule:nonzero;stroke:none"
         id="path128" /><g
         id="g130"><g
           id="g132"
           clip-path="url(#clipPath136)"><path
             d="m 15094.6,18114.4 412.7,-401 c 27.6,-26.7 30.2,-70.4 5.5,-99.8 -127.3,-151.7 -236.6,-231.2 -327.4,-237.2 -38.6,-2.5 -75.1,17.8 -95.8,50.4 l -219.4,346 224.4,341.6"
             style="fill:url(#linearGradient142);fill-opacity:1;fill-rule:nonzero;stroke:none"
             id="path144" /></g></g><g
         id="g146"><g
           id="g148"
           clip-path="url(#clipPath152)"><path
             d="m 14261.4,16138.5 -355.1,138.2 -412.8,-328.4 739.2,-2.7 28.7,192.9"
             style="fill:url(#linearGradient158);fill-opacity:1;fill-rule:nonzero;stroke:none"
             id="path160" /></g></g><g
         id="g162"><g
           id="g164"
           clip-path="url(#clipPath168)"><path
             d="m 14402.4,18207.1 c 0,0 56.3,-396.1 208.5,-517.9 152.1,-121.8 448.6,-30.1 548.7,268.5 l -199.5,510.6 -557.7,-261.2"
             style="fill:url(#linearGradient174);fill-opacity:1;fill-rule:nonzero;stroke:none"
             id="path176" /></g></g><path
         d="m 14982.6,18137.9 c -11.6,-3.7 -23.7,3.7 -25.5,15.7 -5.5,36.6 -19.2,108.9 -47,158.2 0,0 14.5,52 -131.3,-26.5 -145.9,-78.5 -364.9,-193.9 -493.9,-125.2 -125.7,67 -253.1,403.9 79.2,341.5 12.6,-2.4 24.3,7.7 23.3,20.5 -4.1,55.4 1.4,182.8 130.5,223.7 120.7,38.2 186.8,-16.3 214,-49.1 8,-9.7 22.9,-9.5 30.5,0.4 36.2,47.3 134.4,147.8 279,84 119.1,-52.4 137.6,-125.8 135.7,-171.5 -0.7,-14.8 14.4,-24.9 27.8,-18.7 36.5,16.8 95.2,25.6 151.4,-44.8 77.6,-97.4 -33.4,-181.8 -66.7,-203.9 -5.4,-3.7 -8.8,-9.7 -8.9,-16.2 -0.3,-50.7 -8.2,-271.5 -118.8,-396 -9.6,-10.8 -27.3,-7.7 -32.9,5.6 l -85.2,203.1 c -4,9.4 -14.5,14.2 -24.2,11.1 l -37,-11.9"
         style="fill:#333435;fill-opacity:1;fill-rule:nonzero;stroke:none"
         id="path178" /><g
         id="g180"><g
           id="g182"
           clip-path="url(#clipPath186)"><path
             d="m 14980.8,18096.7 c 0,0 52,211.9 131.1,143.1 79,-68.8 -20.6,-220.3 -111.2,-249.1 l -19.9,106"
             style="fill:url(#linearGradient192);fill-opacity:1;fill-rule:nonzero;stroke:none"
             id="path194" /></g></g><path
         d="m 15575.3,17202.6 c 0,0 -16,490.3 185.5,500.2 250.1,12.2 652.2,-169 412.8,-887.7 -132.2,-397.1 -331.5,-691.7 -878.6,-816.5 -26.6,201.2 -117.8,341.4 -185.2,420.5 222.9,157.1 411.7,401.8 465.5,783.5"
         style="fill:#f7e057;fill-opacity:1;fill-rule:nonzero;stroke:none"
         id="path196" /><path
         d="m 15134.9,16417.7 c 3.9,0 7.8,1.2 11.3,3.6 256.6,180.8 399.1,428.3 448.5,778.6 0.1,1.1 0.2,2.2 0.1,3.3 -4.2,131.1 17.6,472.7 166.9,480 72.2,3.5 148,-10.1 213.3,-38.4 10,-4.2 21.5,0.3 25.8,10.3 4.3,9.9 -0.3,21.4 -10.2,25.7 -70.7,30.7 -152.7,45.3 -230.8,41.6 -214,-10.5 -205.2,-481 -204.2,-518.7 -47.9,-338 -185.2,-576.5 -432,-750.4 -8.9,-6.2 -11,-18.5 -4.8,-27.3 3.9,-5.4 9.9,-8.3 16.1,-8.3"
         style="fill:#ecc538;fill-opacity:1;fill-rule:nonzero;stroke:none"
         id="path198" /><path
         d="m 15469.2,16028.3 c 2.1,0 4.2,0.3 6.4,1.1 453.8,156.6 612.6,467.2 716.6,779.5 23.6,70.7 41.8,138.9 54.1,202.5 2,10.7 -4.9,21 -15.5,23 -10.7,2.1 -20.9,-4.9 -23,-15.5 -12,-62 -29.7,-128.5 -52.8,-197.6 -100.8,-302.8 -254.5,-603.8 -692.2,-754.9 -10.3,-3.5 -15.7,-14.7 -12.2,-24.9 2.8,-8.1 10.4,-13.2 18.6,-13.2"
         style="fill:#ecc538;fill-opacity:1;fill-rule:nonzero;stroke:none"
         id="path200" /><g
         id="g202"><g
           id="g204"
           clip-path="url(#clipPath208)"><path
             d="m 14160.9,15948.3 0.8,190.2 c 0,0 533.1,-11.8 948.1,280.6 67.4,-79.1 158.6,-219.3 185.2,-420.5 -276.8,-63.2 -642.6,-82.9 -1134.1,-50.3"
             style="fill:url(#linearGradient214);fill-opacity:1;fill-rule:nonzero;stroke:none"
             id="path216" /></g></g><path
         d="m 14844.3,15881.9 c -1.3,0 -2.6,-0.1 -3.9,0 l -1695.6,1.8 c -41.9,0 -75.9,34.1 -75.8,76 0,41.9 34.2,76.5 76,75.8 l 1695.5,-1.9 c 42,0 75.9,-34 75.9,-75.9 -0.1,-40.6 -32,-73.8 -72.1,-75.8"
         style="fill:#48494b;fill-opacity:1;fill-rule:nonzero;stroke:none"
         id="path218" /><path
         d="m 11620.6,17421.4 h 1412 c 104.2,0 199,-60.1 243.5,-154.3 l 652.8,-1384.3 H 12174 c -67.1,0 -127.4,41.1 -152.1,103.5 l -506.2,1280.9 c -29.3,74 25.3,154.2 104.9,154.2"
         style="fill:#48494b;fill-opacity:1;fill-rule:nonzero;stroke:none"
         id="path220" /><path
         d="m 12615.4,16711.7 c 30.6,-95.1 8,-187.4 -50.5,-206.3 -58.5,-18.8 -130.7,43 -161.3,138.1 -30.6,95.1 -8,187.4 50.5,206.2 58.5,18.9 130.7,-43 161.3,-138"
         style="fill:#a8abb2;fill-opacity:1;fill-rule:nonzero;stroke:none"
         id="path222" /><path
         d="m 9736.56,10505.6 -3538.6,-3547 c -148.42,-148.8 -138.64,-392.4 21.2,-528.9 l 26.24,-22.3 c 141.43,-120.7 354.07,-103.2 473.84,39 l 3244.86,3852.6 -227.54,206.6"
         style="fill:#333435;fill-opacity:1;fill-rule:nonzero;stroke:none"
         id="path224" /><path
         d="m 11229.2,10065.8 c -865.5,0 -1689.03,481.7 -2074.41,1305.6 -4.47,9.6 -8.89,19.2 -13.21,28.8 275.43,342.3 593.53,644.3 945.32,896 l 60,-77.8 c 30.4,-39.4 76,-60.1 122.2,-60.1 32.9,0 66,10.5 94,32.1 67.4,52 80,148.8 28,216.2 l -47,61 c 480.1,297.2 1014.3,504.9 1582.9,602.2 l 213.6,-2819.3 c -297.5,-125.1 -607,-184.7 -911.4,-184.7"
         style="fill:#b9bcc1;fill-opacity:1;fill-rule:nonzero;stroke:none"
         id="path226" /><path
         d="m 9141.58,11400.2 c -301.48,668.4 -248.66,1410.2 80.83,2017.6 l 864.49,-1121.6 c -351.79,-251.7 -669.89,-553.7 -945.32,-896 m 1202.52,1067.4 -945.49,1226.7 c 224.68,303.2 526.89,557.2 894.39,729.1 323.7,151.4 663.9,223.1 997.8,223.1 176.6,0 351.5,-20 521.2,-58.9 l 115,-1517.8 c -568.6,-97.3 -1102.8,-305 -1582.9,-602.2"
         style="fill:#f5dc65;fill-opacity:1;fill-rule:nonzero;stroke:none"
         id="path228" /><path
         d="m 10269.1,12158.3 c -46.2,0 -91.8,20.7 -122.2,60.1 l -60,77.8 -864.49,1121.6 c 51.93,95.7 110.82,188.2 176.2,276.5 l 945.49,-1226.7 47,-61 c 52,-67.4 39.4,-164.2 -28,-216.2 -28,-21.6 -61.1,-32.1 -94,-32.1"
         style="fill:#ffffff;fill-opacity:1;fill-rule:nonzero;stroke:none"
         id="path230" /><path
         d="m 12795.9,10662.5 -516,2452.9 c 76.6,6.8 153.5,11.5 231.1,14.2 v -76.9 c 0,-85.2 69,-154.2 154.2,-154.2 85.1,0 154.1,69 154.1,154.2 v 76.9 c 223,-7.8 442.3,-32.5 656.3,-72.8 269.2,-861.8 -9.2,-1799 -679.7,-2394.3"
         style="fill:#b9bcc1;fill-opacity:1;fill-rule:nonzero;stroke:none"
         id="path232" /><path
         d="m 13475.6,13056.8 c -214,40.3 -433.3,65 -656.3,72.8 v 942.2 c 224.1,-198.1 411.6,-443.7 546,-730.9 43.6,-93.3 80.3,-188.3 110.3,-284.1 m -1195.7,58.6 -300.1,1427 c 186.5,-57.7 365.2,-138.8 531.2,-241.5 v -1171.3 c -77.6,-2.7 -154.5,-7.4 -231.1,-14.2"
         style="fill:#f5dc65;fill-opacity:1;fill-rule:nonzero;stroke:none"
         id="path234" /><path
         d="m 12665.2,12898.5 c -85.2,0 -154.2,69 -154.2,154.2 v 76.9 1171.3 c 108.7,-67.3 211.8,-143.7 308.3,-229.1 v -942.2 -76.9 c 0,-85.2 -69,-154.2 -154.1,-154.2"
         style="fill:#ffffff;fill-opacity:1;fill-rule:nonzero;stroke:none"
         id="path236" /><path
         d="m 12140.6,10250.5 -213.6,2819.3 -115,1517.8 c 56.6,-13 112.5,-28.1 167.8,-45.2 l 300.1,-1427 516,-2452.9 c -166.3,-147.7 -356.7,-274.3 -568.9,-373.6 -28.7,-13.4 -57.5,-26.2 -86.4,-38.4"
         style="fill:#6d6d6f;fill-opacity:1;fill-rule:nonzero;stroke:none"
         id="path238" /><path
         d="m 12178,10393.8 c -1103.8,-516.3 -2409.46,-56.2 -2916.42,1027.6 -506.97,1083.8 -23.21,2380.9 1080.52,2897.2 1103.7,516.2 2409.4,56.2 2916.4,-1027.6 506.9,-1083.8 23.2,-2380.9 -1080.5,-2897.2 z m -1994,4262.7 C 8890.26,14051.3 8323.21,12530.8 8917.47,11260.4 9511.72,9990 11042.3,9450.7 12336,10055.9 c 1293.8,605.2 1860.8,2125.6 1266.6,3396 -594.3,1270.5 -2124.8,1809.7 -3418.6,1204.6"
         style="fill:#333435;fill-opacity:1;fill-rule:nonzero;stroke:none"
         id="path240" /><path
         d="m 8937.58,11716.1 c -4.38,-0.4 -8.55,2.4 -9.71,6.8 -42.52,159.7 -67.98,324.6 -75.68,489.9 -21.8,468.1 95.75,930.8 339.96,1338.2 250.01,417.1 617.24,747.6 1061.95,955.6 418.3,195.7 879.2,269.7 1333.1,214 5,-0.6 8.6,-5.2 7.9,-10.2 -0.6,-5 -5.1,-8.6 -10.1,-7.9 -450.4,55.2 -908,-18.3 -1323.1,-212.5 -441.45,-206.4 -805.93,-534.4 -1054.07,-948.4 -242.34,-404.3 -359,-863.5 -337.37,-1328 7.64,-164 32.9,-327.5 75.08,-486 1.3,-4.9 -1.6,-9.9 -6.48,-11.2 z m 284.83,-650.7 c -3.34,-0.3 -6.72,1.2 -8.63,4.2 -32.35,51.1 -63.1,104.1 -91.39,157.6 -2.37,4.4 -0.67,10 3.8,12.3 4.43,2.4 10,0.7 12.35,-3.8 28.08,-53 58.59,-105.6 90.69,-156.3 2.71,-4.3 1.44,-9.9 -2.83,-12.6 -1.25,-0.8 -2.62,-1.3 -3.99,-1.4"
         style="fill:#5c5e61;fill-opacity:1;fill-rule:nonzero;stroke:none"
         id="path242" /><path
         d="m 6533.21,6443.4 c -149.14,-14.5 -250.87,28.2 -302.45,127.1 -52.47,100.5 -32.48,226.1 49.75,312.3 l 418.65,439.2 c 3.46,3.7 9.27,3.8 12.92,0.3 3.67,-3.4 3.8,-9.2 0.32,-12.9 l -418.65,-439.2 c -76.82,-80.6 -95.62,-197.6 -46.77,-291.3 47.79,-91.6 143.49,-131 284.49,-117.2 1.54,0.1 2.91,0.2 4.63,0.4 4.99,0.5 9.46,-3.1 9.98,-8.1 0.53,-5.1 -3.11,-9.6 -8.14,-10.1 -1.57,-0.1 -3.16,-0.3 -4.73,-0.5"
         style="fill:#5c5e61;fill-opacity:1;fill-rule:nonzero;stroke:none"
         id="path244" /><path
         d="m 6835.67,7441.9 c -2.55,-0.2 -5.2,0.6 -7.19,2.5 -3.67,3.5 -3.8,9.3 -0.32,13 l 54.26,56.9 c 3.46,3.6 9.27,3.8 12.92,0.3 3.66,-3.5 3.8,-9.3 0.31,-12.9 l -54.25,-57 c -1.57,-1.6 -3.62,-2.6 -5.73,-2.8"
         style="fill:#ffffff;fill-opacity:1;fill-rule:nonzero;stroke:none"
         id="path246" /><g
         id="g248"><g
           id="g250"
           clip-path="url(#clipPath254)"><path
             d="M 7196.6,6857.3 6691.05,6730.9 6817.43,5783 c 0,0 -189.58,-189.6 -252.77,-442.4 -63.2,-252.8 -121.46,-1314.1 -121.46,-1314.1 l -119.96,-72.6 -14.59,-60.5 349,-469.2 -57.87,373.4 c -9.19,59.3 6.72,179.6 1.71,182.1 189.58,505.5 595.11,1929.7 595.11,1929.7 v 947.9"
             style="fill:url(#linearGradient260);fill-opacity:1;fill-rule:nonzero;stroke:none"
             id="path262" /></g></g><g
         id="g264"><g
           id="g266"
           clip-path="url(#clipPath270)"><path
             d="m 7344.32,3886.9 c -5.47,0.1 -10.85,-0.3 -16.36,0 24.43,304.8 136.08,1646.1 247.8,2148.8 C 7702.14,6604.5 7386.18,7742 7386.18,7742 L 6817.43,7173.2 7133.4,6098.9 c -216.53,-324.8 35.32,-2226.8 29.9,-2226 l 0.34,-4.2 -82.44,-113.4 10.03,-61.5 503.65,-297.2 -198.18,321.8 c -31.45,51.1 -48.83,109 -52.38,168.5"
             style="fill:url(#linearGradient276);fill-opacity:1;fill-rule:nonzero;stroke:none"
             id="path278" /></g></g><g
         id="g280"><g
           id="g282"
           clip-path="url(#clipPath286)"><path
             d="m 6704.6,10264.4 c 0,0 -1107.35,-1248.1 0,-1888 l 112.83,81.7 c 0,0 -549.76,526.5 0,1170.9 l -112.83,635.4"
             style="fill:url(#linearGradient292);fill-opacity:1;fill-rule:nonzero;stroke:none"
             id="path294" /></g></g><path
         d="m 7628.05,3350 h -160.73 c -30.09,0 -58.46,13.8 -76.81,37.7 -50.1,65.1 -153.91,192.1 -203.55,195.4 -66.83,4.5 -58.27,-233.1 -58.27,-233.1 h -37.46 l -47.45,295.2 c -11.94,74.3 25,147.9 91.69,182.7 0,0 15.28,-113 98.11,-163 82.82,-49.9 337.05,-228.9 337.05,-228.9 0,0 31.14,4.4 65.33,-1.7 50.71,-9.2 43.62,-84.3 -7.91,-84.3"
         style="fill:#333435;fill-opacity:1;fill-rule:nonzero;stroke:none"
         id="path296" /><path
         d="m 6670.14,3368.3 -148.15,62.3 c -27.72,11.7 -48.52,35.4 -56.19,64.5 -20.94,79.5 -67.37,236.8 -111.84,259.1 -59.86,30.1 -144.11,-192.2 -144.11,-192.2 l -34.52,14.5 70.73,290.5 c 17.8,73.1 80.38,126.6 155.35,132.8 0,0 -29.72,-110.1 27.24,-188.2 56.97,-78.2 221.92,-341.7 221.92,-341.7 0,0 30.42,-8 59.54,-27 43.19,-28.1 7.53,-94.6 -39.97,-74.6"
         style="fill:#333435;fill-opacity:1;fill-rule:nonzero;stroke:none"
         id="path298" /><path
         d="m 7531.02,8703.7 c 0,0 -18.59,-114 8.64,-427.1 27.23,-313.2 157.4,-1048.4 130.89,-1751.8 0,0 -370.03,-86.2 -1012.9,-45.4 0,0 -271.32,1098.3 -205.21,1515.8 66.09,417.6 424.62,717.1 424.62,717.1 l 653.96,-8.6"
         style="fill:#ffffff;fill-opacity:1;fill-rule:nonzero;stroke:none"
         id="path300" /><g
         id="g302"><g
           id="g304"
           clip-path="url(#clipPath308)"><path
             d="m 7257.6,10796.2 45.23,-531.8 h -429.68 l 106.84,811.7 277.61,-279.9"
             style="fill:url(#linearGradient314);fill-opacity:1;fill-rule:nonzero;stroke:none"
             id="path316" /></g></g><path
         d="m 6745.86,10337.9 c 148.3,8.2 479.84,23.3 714.73,10.5 123.66,-6.7 227.25,-95.4 252.55,-216.7 l 57.28,-274.5 c 21.34,-102.2 18.15,-208.1 -9.3,-308.9 l -230.1,-844.6 c 0,0 -204.66,-123 -653.96,8.6 0,0 -394.57,940.9 -233.06,1542.8 12.54,46.8 53.54,80.2 101.86,82.8"
         style="fill:#ffffff;fill-opacity:1;fill-rule:nonzero;stroke:none"
         id="path318" /><g
         id="g320"><g
           id="g322"
           clip-path="url(#clipPath326)"><path
             d="m 7701.91,10181 c 63.29,-166.7 120.45,-341.5 181.86,-505.3 31.23,-81.9 62.9,-162.3 96.79,-236 17.14,-36.8 35.96,-70.5 53.24,-101.1 17.3,-30.3 36.78,-55.6 46.93,-67.2 1.99,-1.7 -4.68,-3 -6.91,-3.1 -1.34,-0.2 42.79,-7.2 56.33,-9.5 l 52.89,0.3 c 75.81,3.9 161.68,17.3 247.81,34 173.73,32.4 354.35,77.9 539.8,112.3 l 1.43,0.3 c 35.48,6.5 69.59,-16.9 76.17,-52.4 4.34,-23.4 -4.46,-46.3 -21.07,-61 -74.78,-65.8 -154.05,-119.9 -236.27,-172.5 -41.38,-25.3 -83.49,-50.1 -126.3,-73.9 -43.64,-22.3 -87.41,-44.7 -132.87,-65.4 -91.53,-39.9 -186.08,-76.6 -295,-100.2 -28.62,-4.8 -56.87,-9.9 -86.32,-13.8 -33.04,-1.1 -63.04,-4.1 -99.12,-2 -19.16,1.9 -38.41,4.3 -57.61,7.1 -10.24,1.8 -17.76,2 -30.16,5.4 -13.16,3.9 -26.29,8.3 -39.24,13.2 -27.05,9.7 -44.53,21.5 -66.5,33.7 -18.24,12 -34.88,24.6 -51.01,37.5 -59.55,50.7 -96.53,101 -129.12,149.4 -32.49,48.3 -58.26,96.6 -81.38,144.1 -46.39,94.7 -82.61,188.5 -111.99,283 -59.56,189.4 -99.91,375.5 -116.95,573.2 -8.15,94.6 62,178 156.68,186.2 78.37,6.7 148.99,-40.2 175.62,-110.2 l 2.27,-6.1"
             style="fill:url(#linearGradient332);fill-opacity:1;fill-rule:nonzero;stroke:none"
             id="path334" /></g></g><g
         id="g336"><g
           id="g338"
           clip-path="url(#clipPath342)"><path
             d="m 8912.28,9320.4 76.67,182 403.55,100.6 c 0,0 32.29,-70 -137.2,-100.6 0,0 60.53,-66.9 28.25,-145.6 -32.29,-78.7 -375.31,-157.5 -371.27,-36.4"
             style="fill:url(#linearGradient348);fill-opacity:1;fill-rule:nonzero;stroke:none"
             id="path350" /></g></g><g
         id="g352"><g
           id="g354"
           clip-path="url(#clipPath358)"><path
             d="m 7439.53,11410.4 c 15.34,-9.1 136.23,-435.4 34.93,-614.2 -101.3,-178.8 -410.64,21.5 -494.47,279.9 -83.83,258.5 50.85,575.3 459.54,334.3"
             style="fill:url(#linearGradient364);fill-opacity:1;fill-rule:nonzero;stroke:none"
             id="path366" /></g></g><path
         d="m 6637.79,11076.1 c -69.39,-339.9 -299.29,-246.9 -462.12,-398.1 -263.9,-245.1 -641.43,7.6 -1008.45,-224.7 -264.96,-167.7 -392.63,-596.8 -265.47,-943.2 176.11,-479.7 777.94,-677 1089.83,-530.9 298.07,139.7 255.63,557.9 656.68,719.6 170.27,68.6 254.32,24 356.29,125.7 178.51,178.1 130.34,523.6 111.78,656.7 -40.26,288.8 -137.11,341.1 -90.82,468.1 90.02,246.9 509.92,195.9 544.92,370.2 31.86,158.8 -272.48,459.6 -558.89,412.2 -443.14,-73.3 -342.84,-504.1 -373.75,-655.6"
         style="fill:#333435;fill-opacity:1;fill-rule:nonzero;stroke:none"
         id="path368" /><path
         d="m 5034.09,9591.4 c -5.26,0 -9.99,3.5 -11.29,8.9 -56.73,235.5 -30.99,428.7 76.55,574.1 178.45,241.4 525.28,265.3 528.77,265.5 5.46,0.9 11.88,-4.5 12.29,-10.9 0.38,-6.4 -4.47,-11.9 -10.88,-12.3 -3.38,-0.2 -339.72,-23.5 -511.63,-256.2 -103.19,-139.7 -127.59,-326.3 -72.53,-554.8 1.5,-6.2 -2.33,-12.5 -8.56,-14 -0.91,-0.2 -1.84,-0.3 -2.72,-0.3"
         style="fill:#5c5e61;fill-opacity:1;fill-rule:nonzero;stroke:none"
         id="path370" /><path
         d="m 6170.04,9375.8 -1.47,0.1 c -3.09,0.9 -4.94,4 -4.15,7.1 55.27,212.1 152.24,359.3 288.2,437.8 98.9,57 191.53,62.3 273.23,67 78.79,4.5 146.83,8.5 201.6,57.2 113.2,100.6 106.65,342.7 -19.49,719.4 -1.02,3 0.63,6.3 3.67,7.3 3.06,1 6.32,-0.6 7.34,-3.7 127.75,-381.5 133.18,-627.7 16.18,-731.7 -57.78,-51.4 -127.68,-55.4 -208.64,-60.1 -80.42,-4.6 -171.57,-9.8 -268.1,-65.5 -133.16,-76.8 -228.3,-221.7 -282.75,-430.6 -0.68,-2.6 -3.03,-4.3 -5.62,-4.3"
         style="fill:#5c5e61;fill-opacity:1;fill-rule:nonzero;stroke:none"
         id="path372" /><path
         d="m 6801.94,11160.5 -1.86,0.3 c -3.04,1 -4.67,4.3 -3.64,7.4 43.93,130.7 170.5,111.2 304.61,90.6 84.88,-13 172.63,-26.5 247.07,-4.4 55.54,16.4 88.53,41.9 98.07,75.8 16.29,57.7 -40.77,122 -41.33,122.7 -2.15,2.3 -1.95,6 0.43,8.1 2.35,2.2 6.05,2 8.18,-0.4 2.54,-2.8 61.88,-69.6 43.91,-133.5 -10.7,-38 -46.34,-66.2 -105.95,-83.8 -76.97,-22.8 -166,-9.2 -252.14,4.1 -134.62,20.6 -251.01,38.5 -291.84,-83 -0.82,-2.4 -3.09,-3.9 -5.51,-3.9"
         style="fill:#5c5e61;fill-opacity:1;fill-rule:nonzero;stroke:none"
         id="path374" /><path
         d="m 13857.6,20684.4 -6438.51,31 c -77.6,0.7 -140.62,-85.1 -140.02,-190.7 l 14.26,-2547.4 c 0.59,-106.2 65.26,-190.9 143.27,-187.7 l 6401.8,137.1 c 74.5,3 133.9,85.4 134.9,186.7 l 22.4,2379.4 c 1,104.9 -61,191 -138.1,191.6"
         style="fill:#74767b;fill-opacity:1;fill-rule:nonzero;stroke:none"
         id="path376" /><path
         d="m 7418.19,20532.7 c -1.39,-2.2 -1.93,-4.1 -1.92,-6.6 l 14.26,-2547.4 c 0.03,-4 1.78,-6.3 2.38,-6.6 l 6400.99,137.2 c 0.6,0.5 2.1,2.7 2.2,6.5 l 22.4,2379.3 c 0,2.4 -0.5,4.4 -1.6,5.9 l -6438.71,31.7 m 14.38,-2582.5 c -13.5,0 -23.97,12.5 -24.07,28.4 l -14.25,2547.3 c -0.03,7.3 1.93,13.7 5.85,19.1 4.59,6.3 11.02,9.7 18.14,9.7 l 6438.56,-30.9 c 7.1,-0.1 13.5,-3.6 18,-9.9 3.8,-5.3 5.8,-11.9 5.7,-19.1 l -22.4,-2379.2 c -0.1,-15.6 -10.1,-27.7 -23.1,-28.3 h -0.2 l -6402.23,-137.1"
         style="fill:#ffffff;fill-opacity:1;fill-rule:nonzero;stroke:none"
         id="path378" /><path
         d="m 7680.15,18170.8 h 313.328 v 1197.36 H 7680.15 Z"
         style="fill:#c7c8ca;fill-opacity:1;fill-rule:nonzero;stroke:none"
         id="path380" /><path
         d="m 8203.7,18170.8 h 313.332 v 785.84 H 8203.7 Z"
         style="fill:#c7c8ca;fill-opacity:1;fill-rule:nonzero;stroke:none"
         id="path382" /><path
         d="m 8727.24,18170.8 h 313.328 v 1802.87 H 8727.24 Z"
         style="fill:#c7c8ca;fill-opacity:1;fill-rule:nonzero;stroke:none"
         id="path384" /><path
         d="m 9250.78,18170.8 h 313.328 v 433.109 H 9250.78 Z"
         style="fill:#c7c8ca;fill-opacity:1;fill-rule:nonzero;stroke:none"
         id="path386" /><path
         d="m 9774.33,18170.8 h 313.367 v 1561.84 H 9774.33 Z"
         style="fill:#c7c8ca;fill-opacity:1;fill-rule:nonzero;stroke:none"
         id="path388" /><path
         d="m 10297.9,18170.8 h 313.297 v 1291.42 H 10297.9 Z"
         style="fill:#c7c8ca;fill-opacity:1;fill-rule:nonzero;stroke:none"
         id="path390" /><path
         d="m 10821.4,18170.8 h 313.297 v 997.48 H 10821.4 Z"
         style="fill:#c7c8ca;fill-opacity:1;fill-rule:nonzero;stroke:none"
         id="path392" /><path
         d="m 11345,18170.8 h 313.301 v 2167.35 H 11345 Z"
         style="fill:#c7c8ca;fill-opacity:1;fill-rule:nonzero;stroke:none"
         id="path394" /><path
         d="m 11868.5,18170.8 h 313.301 v 1938.08 H 11868.5 Z"
         style="fill:#c7c8ca;fill-opacity:1;fill-rule:nonzero;stroke:none"
         id="path396" /><path
         d="m 12392,18170.8 h 313.402 v 1591.23 H 12392 Z"
         style="fill:#c7c8ca;fill-opacity:1;fill-rule:nonzero;stroke:none"
         id="path398" /><path
         d="m 12915.6,18170.8 h 313.301 v 392.918 H 12915.6 Z"
         style="fill:#c7c8ca;fill-opacity:1;fill-rule:nonzero;stroke:none"
         id="path400" /><path
         d="m 13439.1,18170.8 h 313.398 V 19327 H 13439.1 Z"
         style="fill:#c7c8ca;fill-opacity:1;fill-rule:nonzero;stroke:none"
         id="path402" /><path
         d="m 14212.7,6998 c -10.5,0 -21.2,2.6 -31,8.2 -29.9,17.1 -40.4,55.3 -23.3,85.3 35,61.5 73.2,122.2 113.5,180.6 12.1,17.5 31.6,27 51.5,27 12.3,0 24.6,-3.6 35.5,-11.1 28.4,-19.6 35.5,-58.6 15.9,-87 -38.3,-55.4 -74.5,-113.1 -107.8,-171.4 -4.5,-8 -10.6,-14.7 -17.6,-19.7 -10.7,-7.8 -23.6,-11.9 -36.7,-11.9 m 4228.1,4.9 c -21.7,0 -42.7,11.3 -54.3,31.4 -33.4,58.1 -69.9,115.7 -108.4,171.1 -19.5,28 -12.8,66.4 14.7,86.3 l 1,0.7 c 10.9,7.6 23.3,11.2 35.6,11.2 19.8,0 39.3,-9.4 51.4,-26.9 40.5,-58.3 78.9,-118.9 114.1,-180.1 16.1,-28 8.1,-63.2 -17.5,-81.8 -1.7,-1.2 -3.6,-2.4 -5.5,-3.5 -9.8,-5.7 -20.6,-8.4 -31.1,-8.4 m -3906.7,434.9 c -15.1,0 -30.3,5.5 -42.3,16.5 -25.4,23.4 -27.1,63 -3.7,88.4 47.9,52 98.7,102.7 150.9,150.6 12,11.1 27.1,16.5 42.2,16.5 16.9,0 33.8,-6.9 46.2,-20.3 23.3,-25.5 21.6,-65 -3.9,-88.4 -49.6,-45.5 -97.9,-93.6 -143.4,-143.1 -2.9,-3.2 -6,-5.9 -9.4,-8.3 -10.8,-7.9 -23.7,-11.9 -36.6,-11.9 m 3584.2,4.2 c -16.9,0 -33.7,6.7 -46,20.1 -45.6,49.6 -93.9,97.8 -143.3,143.1 -25.5,23.3 -27.2,62.9 -3.9,88.3 12.4,13.5 29.3,20.3 46.2,20.3 15.1,0 30.2,-5.4 42.2,-16.4 52,-47.7 102.8,-98.4 150.8,-150.6 23.4,-25.4 21.7,-64.9 -3.7,-88.3 -1.8,-1.7 -3.7,-3.3 -5.7,-4.7 -10.9,-7.9 -23.8,-11.8 -36.6,-11.8 m -3173.1,353.4 c -19.8,0 -39.3,9.4 -51.4,26.9 -19.4,28.1 -12.8,66.4 14.7,86.3 l 1.1,0.7 c 58.3,40.4 118.9,78.6 180.3,113.7 9.8,5.6 20.5,8.3 31,8.3 21.7,0 42.8,-11.3 54.3,-31.5 16,-27.9 8,-63.1 -17.5,-81.6 -1.8,-1.3 -3.7,-2.5 -5.7,-3.7 -58.3,-33.4 -115.9,-69.7 -171.3,-108 -10.8,-7.5 -23.2,-11.1 -35.5,-11.1 m 2761.8,3.6 c -12.2,0 -24.5,3.5 -35.4,11 -55.3,38.1 -113.1,74.2 -171.6,107.4 -30,17 -40.5,55.2 -23.5,85.2 11.6,20.3 32.7,31.7 54.5,31.7 10.4,0 21,-2.6 30.8,-8.2 61.6,-34.9 122.4,-73 180.7,-113.1 28.4,-19.6 35.6,-58.5 16.1,-86.9 -4.2,-6.1 -9.2,-11.2 -14.9,-15.3 -10.7,-7.8 -23.6,-11.8 -36.7,-11.8 m -2282.1,254.1 c -24.8,0 -48.3,14.9 -58.1,39.4 -12.8,32 2.9,68.3 34.9,81.2 65.7,26.3 133.4,50 201.1,70.5 6.1,1.9 12.2,2.7 18.2,2.7 26.8,0 51.6,-17.4 59.8,-44.4 7.9,-26.2 -2.2,-53.6 -23.2,-68.8 -5.5,-3.9 -11.7,-7 -18.5,-9.1 -64.3,-19.5 -128.6,-42 -191,-67 -7.6,-3 -15.5,-4.5 -23.2,-4.5 m 1801.3,2 c -7.6,0 -15.4,1.4 -22.9,4.4 -62.6,24.7 -127,47.1 -191.4,66.4 -33.1,9.9 -51.9,44.8 -41.9,77.8 8.1,27.1 33,44.6 59.9,44.6 5.9,0 11.9,-0.9 17.9,-2.6 67.8,-20.4 135.6,-43.9 201.5,-70 32.1,-12.7 47.8,-49 35.1,-81.1 -4.5,-11.5 -12.1,-20.9 -21.4,-27.6 -10.6,-7.7 -23.5,-11.9 -36.8,-11.9 M 15949.8,8197 c -30.3,0 -56.9,22 -61.7,52.9 -5.4,34.1 17.9,66.1 52.1,71.4 69.9,11 141.2,19 211.8,23.9 1.5,0.1 2.9,0.2 4.4,0.2 32.6,0 60,-25.2 62.3,-58.2 1.6,-22.3 -8.8,-42.8 -25.7,-55 -9.2,-6.6 -20.2,-10.9 -32.3,-11.7 -67.1,-4.7 -134.8,-12.4 -201.2,-22.7 -3.3,-0.5 -6.5,-0.8 -9.7,-0.8 m 750.8,0.6 c -3.2,0 -6.4,0.3 -9.6,0.8 -66.4,10.2 -134.1,17.8 -201.4,22.4 -34.4,2.3 -60.4,32.2 -58.1,66.6 2.3,33 29.7,58.3 62.3,58.3 1.5,0 2.9,-0.1 4.4,-0.2 70.7,-4.8 142,-12.8 211.8,-23.5 34.2,-5.3 57.6,-37.2 52.3,-71.4 -2.7,-17.2 -12.1,-31.6 -25.1,-41.1 -10.5,-7.5 -23.2,-11.9 -36.6,-11.9"
         style="fill:#c0bb97;fill-opacity:1;fill-rule:nonzero;stroke:none"
         id="path404" /><path
         d="m 14030.7,6598.4 c -6.9,0 -13.8,1.1 -20.7,3.5 -32.5,11.4 -49.7,47.1 -38.3,79.7 11.2,32 23.3,64.3 35.9,96 9.6,24.6 33.2,39.6 58.1,39.6 7.6,0 15.5,-1.5 23,-4.5 32.1,-12.7 47.8,-49 35.1,-81.1 -12,-30.2 -23.4,-60.9 -34.1,-91.3 -4.4,-12.5 -12.3,-22.8 -22.3,-30 -10.6,-7.6 -23.4,-11.9 -36.7,-11.9"
         style="fill:#c0bb97;fill-opacity:1;fill-rule:nonzero;stroke:none"
         id="path406" /><path
         d="m 14153.3,4696.1 c -22.9,0 -44.9,12.6 -55.9,34.4 -15.3,30.3 -30.2,61.4 -44.3,92.5 -14.3,31.4 -0.5,68.4 31.1,82.8 8.3,3.8 17.1,5.6 25.7,5.6 23.8,0 46.6,-13.7 57,-36.7 13.4,-29.5 27.6,-59.1 42.1,-87.9 14,-27.8 5.4,-61.1 -19.1,-78.8 -2.7,-1.9 -5.5,-3.7 -8.5,-5.2 -9.1,-4.5 -18.7,-6.7 -28.1,-6.7"
         style="fill:#f1eac5;fill-opacity:1;fill-rule:nonzero;stroke:none"
         id="path408" /><path
         d="m 16324.9,3356.7 c -0.1,0 -0.1,0 -0.2,0 -69.6,0.1 -140.1,3.2 -209.5,9.1 -34.4,3 -59.9,33.2 -56.9,67.6 2.8,32.7 30,57.2 62.1,57.2 1.8,0 3.7,-0.1 5.5,-0.2 65.9,-5.6 132.9,-8.6 199.1,-8.7 34.5,-0.1 62.5,-28.1 62.4,-62.7 -0.1,-20.8 -10.3,-39.2 -25.9,-50.5 -10.3,-7.5 -23,-11.8 -36.6,-11.8 m 331.2,21.9 c -30.8,0 -57.6,22.8 -61.8,54.1 -4.7,34.3 19.3,65.7 53.5,70.4 65.7,8.8 131.7,20.6 196.2,34.9 4.5,1 9.1,1.5 13.6,1.5 28.6,0 54.5,-19.9 61,-49 5.5,-25.1 -4.9,-50.1 -24.4,-64.2 -6.8,-4.9 -14.6,-8.5 -23.1,-10.4 -67.9,-15.1 -137.4,-27.4 -206.5,-36.7 -2.9,-0.4 -5.7,-0.6 -8.5,-0.6 m -863.8,37.7 c -4.6,0 -9.2,0.5 -13.8,1.6 -68.1,15.3 -136.2,33.6 -202.6,54.5 -32.9,10.4 -51.2,45.5 -40.8,78.4 8.4,26.8 33,43.8 59.6,43.8 6.2,0 12.5,-0.9 18.8,-2.9 63,-19.8 127.8,-37.3 192.5,-51.8 33.6,-7.6 54.8,-41.1 47.2,-74.8 -3.5,-15.4 -12.4,-28.3 -24.3,-36.9 -10.5,-7.6 -23.2,-11.9 -36.6,-11.9 m 1383.5,92 c -25.3,0 -49.2,15.6 -58.6,40.8 -12,32.3 4.5,68.3 36.9,80.4 62.1,23 123.9,49 183.6,77.1 8.6,4.1 17.7,6 26.6,6 23.5,0 46,-13.3 56.6,-35.9 13,-27.6 4.1,-60 -19.8,-77.2 -3.1,-2.3 -6.5,-4.3 -10.1,-6 -62.9,-29.6 -128,-57 -193.4,-81.3 -7.2,-2.6 -14.5,-3.9 -21.8,-3.9 m -1890.5,82.5 c -9,0 -18.1,1.9 -26.7,6 -15.6,7.4 -31.2,14.9 -46.7,22.7 45.1,10.1 90.7,20.8 135.9,31.6 -0.2,-8.2 -2.2,-16.6 -5.9,-24.5 -4.7,-9.9 -11.6,-18 -19.9,-23.9 -10.6,-7.7 -23.5,-11.9 -36.7,-11.9"
         style="fill:#fdf6cc;fill-opacity:1;fill-rule:nonzero;stroke:none"
         id="path410" /><path
         d="m 15211.9,3619.5 c -47.1,23.5 -93.7,48.6 -139,75 -29.9,17.3 -40,55.6 -22.7,85.4 11.6,20 32.6,31.1 54.2,31.1 10.6,0 21.4,-2.7 31.3,-8.5 57.2,-33.2 116.5,-64.4 176.4,-92.7 23.2,-11 36.6,-34.5 35.7,-58.7 -45.2,-10.8 -90.8,-21.5 -135.9,-31.6"
         style="fill:#f1eac5;fill-opacity:1;fill-rule:nonzero;stroke:none"
         id="path412" /><path
         d="m 17654.5,3749.3 c -20.4,0 -40.5,10 -52.5,28.4 -18.8,29 -10.6,67.6 18.3,86.5 55.1,35.9 109.5,74.7 162.4,115.7 11.3,8.9 24.8,13.2 38.2,13.2 18.7,0 37.2,-8.4 49.5,-24.2 21.2,-27.3 16.2,-66.6 -11,-87.8 -22.9,-17.8 -46,-35.1 -69.4,-52 -33.2,-24 -67.3,-47.5 -101.4,-69.6 -10.6,-6.9 -22.4,-10.2 -34.1,-10.2"
         style="fill:#fdf6cc;fill-opacity:1;fill-rule:nonzero;stroke:none"
         id="path414" /><path
         d="m 14829,3872.4 c -13.5,0 -27.1,4.3 -38.5,13.3 -54.8,42.9 -108.5,88.7 -159.5,136.1 -25.4,23.5 -26.8,63.1 -3.3,88.4 12.3,13.2 29,19.9 45.8,19.9 15.3,0 30.5,-5.5 42.5,-16.7 48.6,-45 99.5,-88.5 151.6,-129.2 27.2,-21.3 32,-60.6 10.7,-87.8 -3.7,-4.7 -8,-8.8 -12.6,-12.2 -10.8,-7.8 -23.7,-11.8 -36.7,-11.8"
         style="fill:#f1eac5;fill-opacity:1;fill-rule:nonzero;stroke:none"
         id="path416" /><path
         d="m 18069.1,4089 c -15.7,0 -31.5,6 -43.7,17.9 -24.7,24.1 -25.1,63.7 -0.9,88.4 46.4,47.4 91.3,97.2 133.4,148.1 12.3,14.9 30.2,22.7 48.2,22.7 14,0 28.2,-4.7 39.8,-14.4 26.6,-22 30.4,-61.4 8.3,-88 -44.3,-53.6 -91.6,-106.1 -140.4,-155.9 -2.5,-2.6 -5.2,-4.9 -8.1,-7 -10.8,-7.8 -23.7,-11.8 -36.6,-11.8"
         style="fill:#fdf6cc;fill-opacity:1;fill-rule:nonzero;stroke:none"
         id="path418" /><path
         d="m 14446,4247.1 c -18.1,0 -36,7.8 -48.3,22.9 -32.6,39.6 -64.3,80.7 -94.3,122.2 -10.8,15 -21.5,30.1 -32,45.2 -19.6,28.4 -13.2,67.7 15.9,87 10.9,7.5 23.3,11.1 35.5,11.1 19.9,0 39.4,-9.4 51.5,-27 10,-14.4 20.1,-28.8 30.4,-43 28.6,-39.5 58.7,-78.5 89.6,-116.2 21.9,-26.7 18,-66.1 -8.7,-88 -1,-0.8 -2,-1.6 -3,-2.4 -11,-7.9 -23.8,-11.8 -36.6,-11.8"
         style="fill:#f1eac5;fill-opacity:1;fill-rule:nonzero;stroke:none"
         id="path420" /><path
         d="m 18399.8,4510.9 c -11.2,0 -22.6,3 -32.8,9.4 -29.4,18.1 -38.5,56.7 -20.3,86 34.8,56.3 67.6,114.8 97.5,173.8 11,21.7 33,34.3 55.8,34.3 9.5,0 19.2,-2.2 28.2,-6.8 30.8,-15.6 43.1,-53.3 27.5,-84.1 -31.5,-62.1 -66,-123.7 -102.7,-182.9 -4.4,-7.2 -10.1,-13.2 -16.5,-17.8 -10.7,-7.8 -23.6,-11.9 -36.7,-11.9"
         style="fill:#fdf6cc;fill-opacity:1;fill-rule:nonzero;stroke:none"
         id="path422" /><path
         d="m 18630,4996.7 c -6.7,0 -13.6,1.1 -20.4,3.5 -32.6,11.2 -49.9,46.8 -38.7,79.4 5.9,17 11.6,34.3 17.1,51.7 15,10.7 30.2,21.6 45.6,32.7 h 88.8 c 1.4,-8.9 0.9,-18.3 -1.9,-27.5 -9.8,-32.8 -20.3,-65.6 -31.4,-97.6 -4.3,-12.6 -12.3,-23 -22.4,-30.3 -10.6,-7.6 -23.4,-11.9 -36.7,-11.9"
         style="fill:#fdf6cc;fill-opacity:1;fill-rule:nonzero;stroke:none"
         id="path424" /><path
         d="m 18588,5131.3 c 3.5,10.9 6.9,21.8 10.2,32.7 h 35.4 c -15.4,-11.1 -30.6,-22 -45.6,-32.7"
         style="fill:#f1eac5;fill-opacity:1;fill-rule:nonzero;stroke:none"
         id="path426" /><path
         d="m 18722.4,5164 h -124.2 c 0.9,2.8 1.7,5.6 2.5,8.3 8.1,27.2 33,44.7 59.9,44.7 5.9,0 12,-0.9 18,-2.7 23.8,-7.1 40.2,-27.2 43.8,-50.3"
         style="fill:#7d774f;fill-opacity:1;fill-rule:nonzero;stroke:none"
         id="path428" /><path
         d="m 18198.1,5972.7 c 0.7,12.4 -6.5,24 -18.1,28.7 l -328.9,135.3 c -28.4,163.6 -83.1,323.9 -164.7,474.2 l 174,309.9 c 6.1,10.9 4.7,24.4 -3.6,33.7 l -283.6,318.7 c -8.3,9.4 -21.6,12.4 -33.1,7.6 L 17212,7144 c -139.7,98.4 -292.6,171.3 -451.8,218.5 l -96.2,342.4 c -3.4,12 -14,20.6 -26.5,21.3 l -425.9,24.8 c -12.4,0.7 -24,-6.5 -28.7,-18.1 L 16047.6,7404 c -163.6,-28.4 -323.9,-83.1 -474.2,-164.6 l -309.9,174 c -10.9,6.1 -24.4,4.6 -33.8,-3.7 L 14911,7126.1 c -9.3,-8.3 -12.3,-21.6 -7.5,-33.1 l 136.8,-328 c -98.4,-139.8 -171.3,-292.7 -218.5,-451.9 l -342.4,-96.2 c -12,-3.4 -20.6,-14 -21.3,-26.4 l -24.8,-425.9 c -0.7,-12.5 6.5,-24 18,-28.8 l 329,-135.3 c 28.4,-163.6 83.1,-323.9 164.6,-474.1 l -174,-310 c -6.1,-10.9 -4.6,-24.4 3.7,-33.7 l 283.6,-318.7 c 8.3,-9.3 21.6,-12.4 33.1,-7.6 l 328,136.9 c 139.8,-98.4 292.7,-171.4 451.9,-218.6 l 96.2,-342.4 c 3.4,-12 14,-20.6 26.4,-21.3 l 425.9,-24.8 c 12.5,-0.7 24,6.5 28.8,18.1 l 135.3,328.9 c 163.6,28.4 323.9,83.1 474.1,164.6 l 310,-173.9 c 10.9,-6.1 24.4,-4.7 33.7,3.6 l 318.7,283.6 c 9.3,8.3 12.4,21.6 7.6,33.1 l -136.9,328.1 c 98.4,139.7 171.4,292.6 218.6,451.8 l 342.4,96.2 c 12,3.4 20.6,14 21.3,26.5 l 24.8,425.9"
         style="fill:#f7e057;fill-opacity:1;fill-rule:nonzero;stroke:none"
         id="path430" /><path
         d="m 16316.4,5439.8 c -154.9,0 -304.7,84.1 -381.1,230.8 -52.9,101.6 -63.1,217.7 -28.6,327 34.4,109.2 109.3,198.5 211,251.4 63,32.8 130.6,48.4 197.3,48.4 154.9,0 304.7,-84.1 381.1,-230.8 99.3,-190.8 40.6,-422.8 -128.8,-545.3 -16.8,-12.1 -34.7,-23.2 -53.6,-33.1 -63.1,-32.8 -130.7,-48.4 -197.3,-48.4 m -1.3,757.6 c -51.1,0 -102.9,-12 -151.2,-37.1 -14.6,-7.6 -28.5,-16.2 -41.5,-25.7 -56.8,-41.1 -98.8,-99 -120.3,-167.1 -26.4,-83.8 -18.6,-172.8 21.9,-250.7 58.6,-112.5 173.5,-176.9 292.2,-176.9 51.1,-0.1 102.9,11.9 151.3,37.1 160.9,83.6 223.5,282.6 139.8,443.4 -58.5,112.5 -173.4,177 -292.2,177"
         style="fill:#fdf6cc;fill-opacity:1;fill-rule:nonzero;stroke:none"
         id="path432" /><path
         d="m 16308.1,4815.4 c -20.8,0 -41.7,0.6 -62.7,1.8 -281.2,16.4 -539.1,141.3 -726.4,351.7 -24.2,27.2 -46.9,55.5 -68,84.6 -141.7,196 -211.2,432.9 -196.9,677.7 16.3,281.2 141.2,539.1 351.6,726.4 200.5,178.4 450.9,266.2 700.4,266.2 290.7,0 580.3,-119.2 788.3,-352.9 23.8,-26.8 46.2,-54.7 67.1,-83.5 90.4,-125.1 152.5,-268.6 181.2,-420.4 2.6,-13.6 -6.4,-26.6 -19.9,-29.2 -1.6,-0.3 -3.2,-0.4 -4.7,-0.4 -8.1,0 -15.6,3.9 -20.2,10.3 -2.1,2.9 -3.6,6.3 -4.3,10 -27.4,144.6 -86.5,281.2 -172.7,400.4 -19.9,27.4 -41.2,54 -63.9,79.5 -198.2,222.7 -473.9,336.3 -750.8,336.3 -237.6,0 -476.1,-83.7 -667.2,-253.7 -200.5,-178.4 -319.4,-424.1 -335,-691.9 -13.6,-233.2 52.6,-458.8 187.6,-645.6 20.1,-27.7 41.7,-54.6 64.8,-80.6 131.6,-147.8 297.4,-247.6 475.1,-297.9 89.9,-25.5 182.8,-38.3 275.8,-38.3 237.6,0 476.1,83.6 667.1,253.7 53.6,47.6 102,100.8 143.9,158.2 4.9,6.7 12.6,10.3 20.3,10.3 5.1,0 10.2,-1.6 14.7,-4.8 2.1,-1.6 4,-3.5 5.5,-5.6 6.2,-8.5 6.5,-20.4 -0.1,-29.4 -2.5,-3.4 -5,-6.8 -7.5,-10.2 -1.3,-1.7 -2.6,-3.5 -4,-5.2 l -1.4,-1.8 c -34,-44.7 -71.8,-86.8 -112.8,-125.7 -8.3,-7.8 -16.8,-15.6 -25.3,-23.2 -27.2,-24.2 -55.4,-46.8 -84.5,-67.9 -179.3,-129.7 -392.7,-198.9 -615.1,-198.9"
         style="fill:#fdf6cc;fill-opacity:1;fill-rule:nonzero;stroke:none"
         id="path434" /><path
         d="m 21149.3,6923.1 c -15.9,0 -30.8,9.9 -36.4,25.7 -10.5,29.5 -22,59 -34.2,87.8 -8.3,19.7 0.8,42.4 20.5,50.7 5,2 10.1,3 15.1,3 15,0 29.3,-8.8 35.6,-23.5 12.8,-30.2 24.8,-61.2 35.8,-92.1 5.8,-16.6 -0.3,-34.4 -13.8,-44.2 -2.9,-2.1 -6.2,-3.9 -9.7,-5.2 -4.3,-1.5 -8.6,-2.2 -12.9,-2.2"
         style="fill:#fdf6cc;fill-opacity:1;fill-rule:nonzero;stroke:none"
         id="path436" /><path
         d="m 21024.7,7192.8 c -13.3,0 -26.3,6.9 -33.4,19.3 -26.4,45.4 -55.2,90.1 -85.9,132.8 l 1.3,91.3 c 2.3,0.4 4.7,0.6 7,0.6 11.6,0 23.2,-4.8 30.7,-14.8 7.2,-9.5 14.3,-19.1 21.3,-28.7 33,-45.7 64.1,-93.7 92.4,-142.5 10,-17.3 5.1,-39.2 -10.7,-50.7 -1.1,-0.7 -2.2,-1.4 -3.4,-2.1 -6.1,-3.5 -12.7,-5.2 -19.3,-5.2"
         style="fill:#fdf6cc;fill-opacity:1;fill-rule:nonzero;stroke:none"
         id="path438" /><path
         d="m 20905.4,7344.9 c -0.8,1 -1.6,2.1 -2.3,3.1 -6.7,9.2 -13.5,18.4 -20.4,27.5 -12.8,17 -9.4,41.2 7.6,54.1 4.9,3.4 10.5,5.6 16.4,6.6 l -1.3,-91.3"
         style="fill:#6e683f;fill-opacity:1;fill-rule:nonzero;stroke:none"
         id="path440" /><path
         d="m 18441.6,7510.5 c -9.7,0 -19.3,3.6 -26.8,10.8 -15.4,14.9 -15.8,39.3 -0.9,54.6 41,42.5 85.1,83.4 130.8,121.6 6.9,5.8 13.9,11.5 20.9,17.2 6.9,5.9 15.4,8.7 23.9,8.7 11.4,0 22.8,-5 30.4,-14.6 13.4,-16.6 10.8,-40.9 -5.8,-54.3 -6.6,-5.3 -13.2,-10.7 -19.8,-16.2 -43.8,-36.6 -85.8,-75.6 -124.9,-116.1 -1.6,-1.6 -3.4,-3.1 -5.2,-4.4 -6.7,-4.9 -14.7,-7.3 -22.6,-7.3"
         style="fill:#c0bb97;fill-opacity:1;fill-rule:nonzero;stroke:none"
         id="path442" /><path
         d="m 20782.9,7512.7 c -10.1,0 -20.1,3.9 -27.7,11.7 -45.4,46.9 -94.1,91.4 -144.8,132.3 -16.6,13.4 -19.2,37.7 -5.8,54.3 7.6,9.4 18.8,14.3 30.1,14.3 8.5,0 17.1,-2.8 24.2,-8.5 53.1,-42.8 104.2,-89.5 151.8,-138.6 14.8,-15.4 14.4,-39.8 -0.9,-54.7 -1.4,-1.3 -2.8,-2.5 -4.3,-3.5 -6.7,-4.9 -14.7,-7.3 -22.6,-7.3"
         style="fill:#6e683f;fill-opacity:1;fill-rule:nonzero;stroke:none"
         id="path444" /><path
         d="m 18753.5,7762.5 c -12.9,0 -25.5,6.4 -32.8,18.2 -11.3,18.1 -5.6,41.6 12.4,53.2 58.2,36.2 119,69.1 180.9,97.7 5.2,2.4 10.7,3.5 16.2,3.5 14.6,0 28.5,-8.3 35.1,-22.4 7.8,-17 2.2,-36.9 -12.4,-47.5 -2,-1.4 -4.2,-2.7 -6.5,-3.8 -59,-27.2 -117,-58.5 -172.5,-93.1 -6.4,-3.9 -13.4,-5.8 -20.4,-5.8"
         style="fill:#c0bb97;fill-opacity:1;fill-rule:nonzero;stroke:none"
         id="path446" /><path
         d="m 20507.2,7790.4 0.4,23.8 c 2.3,-7.6 2.3,-16 -0.4,-23.8"
         style="fill:#6e683f;fill-opacity:1;fill-rule:nonzero;stroke:none"
         id="path448" /><path
         d="m 20470.6,7764.3 c -6.9,0 -13.9,1.8 -20.2,5.7 -55.5,34.3 -113.6,65.5 -172.9,92.7 -19.4,8.9 -27.9,31.8 -19,51.2 6.5,14.2 20.5,22.5 35.1,22.5 5.4,0 10.9,-1.1 16.1,-3.5 62.2,-28.5 123.2,-61.2 181.3,-97.2 8.3,-5.1 14,-12.9 16.6,-21.5 l -0.4,-23.8 c -0.9,-2.7 -2.1,-5.3 -3.7,-7.8 -2.7,-4.4 -6.2,-8.1 -10.2,-11 -6.6,-4.8 -14.6,-7.3 -22.7,-7.3 m -1353.2,166.4 c -16.4,0 -31.6,10.4 -36.8,26.8 -6.5,20.3 4.7,42 25,48.6 65,20.8 132,37.7 199.2,50.2 2.4,0.5 4.8,0.7 7.1,0.7 18.3,0 34.5,-12.9 38,-31.5 2.8,-15.2 -3.6,-30 -15.3,-38.4 -4.5,-3.3 -9.8,-5.6 -15.6,-6.7 -64,-12 -127.9,-28.1 -189.9,-47.9 -3.9,-1.2 -7.9,-1.8 -11.7,-1.8 m 988.8,0.7 c -3.9,0 -7.8,0.6 -11.7,1.8 -62.2,19.7 -126.2,35.7 -190.2,47.5 -21,3.9 -34.9,24.1 -31,45 3.5,18.6 19.7,31.6 38,31.6 2.3,0 4.7,-0.2 7,-0.6 67.1,-12.4 134.2,-29.2 199.5,-49.8 20.3,-6.5 31.6,-28.2 25.2,-48.5 -2.6,-8.2 -7.7,-14.9 -14.2,-19.6 -6.5,-4.7 -14.4,-7.4 -22.6,-7.4 m -595.1,73 c -20.2,0 -37.2,15.8 -38.5,36.3 -1.3,21.3 14.9,39.6 36.2,40.9 34.4,2.1 69,3.2 103.7,3.2 34,0 68,-1 101.8,-3.1 21.3,-1.3 37.5,-19.6 36.2,-40.8 -0.7,-12.1 -6.9,-22.5 -15.9,-29 -6.4,-4.6 -14.3,-7.4 -22.6,-7.4 -0.8,0 -1.6,0.1 -2.4,0.1 -32.2,2 -64.7,3 -97.1,3 -33.1,0 -66.1,-1.1 -99,-3.1 -0.8,0 -1.6,-0.1 -2.4,-0.1"
         style="fill:#c0bb97;fill-opacity:1;fill-rule:nonzero;stroke:none"
         id="path450" /><path
         d="m 19623,4749.1 c -21.2,0 -38.5,17.1 -38.6,38.4 -0.1,21.3 17.1,38.7 38.4,38.9 64.2,0.3 128.9,4.5 192.5,12.6 1.6,0.2 3.2,0.3 4.8,0.3 19.2,0 35.9,-14.2 38.3,-33.7 1.9,-14.5 -4.6,-28.2 -15.7,-36.2 -5,-3.7 -11.1,-6.2 -17.7,-7 -66.7,-8.5 -134.5,-12.9 -201.8,-13.3 0,0 -0.1,0 -0.2,0 m -197.1,10.8 c -1.5,0 -3,0.1 -4.5,0.2 -66.9,7.8 -133.9,19.7 -199.2,35.4 -20.7,5 -33.4,25.8 -28.5,46.5 4.3,17.7 20.1,29.6 37.6,29.6 2.9,0 6,-0.3 9,-1 62.2,-15 126.2,-26.3 190,-33.7 21.2,-2.5 36.3,-21.7 33.9,-42.8 -1.3,-11.2 -7.3,-20.8 -15.8,-26.9 -6.4,-4.6 -14.2,-7.3 -22.5,-7.3 m 588.2,38.8 c -17.3,0 -33,11.7 -37.4,29.2 -5.3,20.7 7.2,41.6 27.9,46.9 62,15.7 123.8,35.4 183.8,58.6 4.6,1.8 9.3,2.6 13.9,2.6 15.5,0 30.1,-9.4 36,-24.7 6.5,-16.7 0.5,-35.2 -13.4,-45.2 -2.6,-1.9 -5.5,-3.5 -8.7,-4.7 -62.8,-24.3 -127.6,-45 -192.6,-61.5 -3.2,-0.8 -6.4,-1.2 -9.5,-1.2 m -971.9,53.5 c -4.4,0 -9,0.7 -13.4,2.4 -63.1,23.6 -125.4,51.2 -184.9,82.1 -18.9,9.9 -26.3,33.2 -16.5,52.1 6.9,13.2 20.4,20.8 34.3,20.8 6,0 12.1,-1.4 17.8,-4.3 56.8,-29.5 116.1,-55.9 176.3,-78.3 20,-7.5 30.1,-29.7 22.6,-49.7 -2.7,-7.4 -7.5,-13.4 -13.5,-17.8 -6.5,-4.7 -14.4,-7.3 -22.7,-7.3 m 1339.6,89.1 c -13.8,0 -27.1,7.4 -34.1,20.4 -10.1,18.8 -2.7,42.1 15.8,52.3 56.4,30.2 111.6,64.3 164.1,101.2 6.8,4.8 14.5,7.1 22.2,7.1 12.2,0 24.1,-5.7 31.6,-16.4 12.2,-17.3 8.2,-41.2 -8.9,-53.5 l -0.4,-0.3 c -55.1,-38.8 -113,-74.5 -172.1,-106.2 -5.8,-3.1 -12,-4.6 -18.2,-4.6"
         style="fill:#fdf6cc;fill-opacity:1;fill-rule:nonzero;stroke:none"
         id="path452" /><path
         d="m 20704.4,5168.3 c -10.6,0 -21.1,4.3 -28.8,12.8 -14.2,15.8 -13,40.2 2.9,54.5 47.6,42.9 93.2,89.2 135.3,137.5 7.7,8.7 18.4,13.2 29.2,13.2 9,0 18,-3.1 25.3,-9.5 16.1,-14 17.8,-38.4 3.8,-54.5 -44.2,-50.6 -92,-99.1 -141.9,-144.1 -1.1,-0.9 -2.1,-1.8 -3.3,-2.6 -6.7,-4.9 -14.6,-7.3 -22.5,-7.3 m 259,297.4 c -7.4,0 -14.9,2.2 -21.6,6.6 -17.6,12 -22.2,36 -10.3,53.7 35.9,53.1 68.9,109 98.1,166 6.9,13.4 20.4,21.1 34.5,21.1 5.9,0 11.9,-1.4 17.5,-4.2 19,-9.8 26.5,-33 16.8,-52 -30.6,-59.9 -65.2,-118.5 -102.9,-174.2 -2.7,-3.9 -5.8,-7.1 -9.4,-9.7 -6.6,-4.8 -14.6,-7.3 -22.7,-7.3"
         style="fill:#7d774f;fill-opacity:1;fill-rule:nonzero;stroke:none"
         id="path454" /><path
         d="m 21205.9,5970.6 h -63.7 c 7.2,10.5 19.2,16.8 31.9,16.8 3.7,0 7.4,-0.5 11,-1.6 8.9,-2.6 16,-8.1 20.8,-15.2"
         style="fill:#fdf6cc;fill-opacity:1;fill-rule:nonzero;stroke:none"
         id="path456" /><path
         d="m 21143.7,5818.6 c -4.4,0 -8.9,0.8 -13.2,2.3 -20,7.3 -30.4,29.5 -23.1,49.6 10.8,29.6 20.8,59.7 29.7,89.4 1.2,3.9 2.9,7.5 5.1,10.7 h 63.7 c 6.4,-9.3 8.7,-21.2 5.2,-32.9 -9.3,-31.1 -19.8,-62.6 -31.1,-93.7 -2.8,-7.5 -7.6,-13.7 -13.6,-18 -6.6,-4.8 -14.5,-7.4 -22.7,-7.4"
         style="fill:#7d774f;fill-opacity:1;fill-rule:nonzero;stroke:none"
         id="path458" /><path
         d="m 20864.5,6496.3 c 0.5,8.4 -4.3,16.1 -12,19.3 l -220.1,90.5 c -19.1,109.5 -55.7,216.8 -110.2,317.3 l 116.4,207.4 c 4.1,7.3 3.1,16.3 -2.4,22.6 l -189.8,213.2 c -5.6,6.3 -14.5,8.3 -22.2,5.1 l -219.5,-91.6 c -93.5,65.9 -195.8,114.7 -302.4,146.3 l -64.3,229.1 c -2.3,8 -9.4,13.7 -17.7,14.2 l -285,16.6 c -8.3,0.5 -16,-4.3 -19.2,-12.1 l -90.5,-220.1 c -109.6,-19 -216.8,-55.6 -317.4,-110.1 l -207.4,116.4 c -7.2,4.1 -16.3,3.1 -22.5,-2.4 L 18665,7268.2 c -6.2,-5.6 -8.2,-14.5 -5,-22.2 l 91.5,-219.5 c -65.8,-93.5 -114.6,-195.8 -146.2,-302.4 l -229.2,-64.3 c -8,-2.3 -13.7,-9.4 -14.2,-17.7 l -16.6,-285 c -0.5,-8.3 4.4,-16.1 12.1,-19.2 l 220.1,-90.6 c 19,-109.5 55.6,-216.7 110.2,-317.3 l -116.4,-207.4 c -4.1,-7.2 -3.1,-16.3 2.4,-22.6 l 189.8,-213.2 c 5.5,-6.2 14.4,-8.3 22.1,-5.1 l 219.5,91.6 c 93.6,-65.8 195.8,-114.7 302.4,-146.2 l 64.4,-229.2 c 2.2,-8 9.3,-13.7 17.7,-14.2 l 285,-16.6 c 8.3,-0.5 16,4.4 19.2,12.1 l 90.5,220.1 c 109.5,19 216.8,55.6 317.3,110.2 L 20309,5393 c 7.3,-4 16.4,-3.1 22.6,2.5 l 213.3,189.8 c 6.2,5.5 8.2,14.4 5,22.1 l -91.6,219.5 c 65.9,93.5 114.7,195.8 146.3,302.4 l 229.1,64.4 c 8.1,2.2 13.8,9.3 14.3,17.6 l 16.5,285"
         style="fill:#f7e057;fill-opacity:1;fill-rule:nonzero;stroke:none"
         id="path460" /><path
         d="m 19605.3,6134.5 c -29.6,0 -59.2,4.5 -88.2,13.6 -74.4,23.5 -135.2,74.5 -171.3,143.7 -74.3,142.9 -18.7,319.3 124.3,394 42.9,22.4 89,33 134.3,33 105.6,0 207.6,-57.3 259.6,-157.2 36.1,-69.2 43,-148.3 19.5,-222.7 -19.1,-60.5 -56.4,-112 -106.8,-148.5 -11.6,-8.4 -23.9,-16 -36.9,-22.8 -42.2,-22 -88.2,-33.1 -134.5,-33.1 m -0.7,507.1 c -33.4,0 -67.3,-7.8 -98.9,-24.3 -9.4,-4.9 -18.4,-10.5 -26.8,-16.6 -84.9,-61.3 -114.3,-177.6 -64.6,-273.2 26.5,-50.9 71.3,-88.5 126,-105.7 21.3,-6.7 43.1,-10.1 64.8,-10.1 34.1,0 68,8.2 99.1,24.4 50.8,26.6 88.4,71.3 105.7,126 17.2,54.7 12.1,112.9 -14.4,163.8 -38.2,73.5 -113.3,115.7 -190.9,115.7"
         style="fill:#fdf6cc;fill-opacity:1;fill-rule:nonzero;stroke:none"
         id="path462" /><path
         d="m 19599.3,5700.4 c -200.5,0 -400.3,82.3 -543.8,243.6 -16.7,18.7 -32.4,38.2 -46.9,58.3 -97.8,135.2 -145.7,298.7 -135.9,467.5 11.3,194.1 97.4,372 242.6,501.2 134.3,119.7 304.3,184.1 482.6,184.1 14.4,0 28.8,-0.5 43.3,-1.3 194,-11.3 372,-97.4 501.2,-242.6 16.4,-18.5 31.8,-37.7 46.2,-57.6 62.4,-86.3 105.2,-185.3 125.1,-290 3.9,-21 -9.9,-41.1 -30.8,-45.2 -2.4,-0.4 -4.8,-0.7 -7.2,-0.7 -12.5,0 -24.1,6.2 -31.3,16 -3.2,4.5 -5.5,9.7 -6.6,15.5 -17.7,93.6 -56,182 -111.8,259.2 -12.8,17.7 -26.6,34.9 -41.3,51.4 -115.5,129.8 -274.6,206.8 -448,216.9 -12.9,0.7 -25.7,1.1 -38.5,1.1 -159.4,0 -311.5,-57.8 -431.5,-164.5 -129.8,-115.5 -206.8,-274.5 -216.9,-447.9 -8.8,-151 34,-297.1 121.5,-418 13,-17.9 26.9,-35.3 41.9,-52.1 115.4,-129.8 274.5,-206.8 447.9,-216.9 1.5,-0.1 3,-0.1 4.4,-0.2 l 1.5,-0.1 c 10.9,-0.5 21.8,-0.8 32.7,-0.8 48.1,0 95.6,5.3 141.8,15.5 104.1,23.3 201.5,72 284,144 1.9,1.7 3.8,3.4 5.7,5.1 v 0 c 34.6,30.7 65.9,65.2 93.2,102.4 7.6,10.3 19.3,15.8 31.2,15.8 7.9,0 15.9,-2.4 22.7,-7.4 3.4,-2.5 6.2,-5.4 8.5,-8.6 9.6,-13.2 10,-31.5 -0.1,-45.4 -1.3,-1.8 -2.6,-3.6 -3.9,-5.3 -29.6,-39.6 -63.2,-76.4 -100.2,-109.3 -18.7,-16.5 -37.9,-32 -57.7,-46.3 -127.2,-92 -276.6,-137.4 -425.6,-137.4"
         style="fill:#fdf6cc;fill-opacity:1;fill-rule:nonzero;stroke:none"
         id="path464" /></g></g></svg>
